<svg width="108" height="88" viewBox="0 0 108 88" fill="none" xmlns="http://www.w3.org/2000/svg">
<g filter="url(#filter0_ii_182_11)">
<path d="M88.6851 54.6928L89.7998 51.613L73.3064 44.5226L72.9607 44.3062L72.161 44.0463L70.7374 48.1969L65.9134 45.188L65.4031 44.9959L65.1138 44.9281L64.7549 46.0316L63.1666 50.4199C61.8016 54.1913 63.5062 58.3101 66.9675 60.1271C66.9366 61.8435 67.3703 63.5368 68.2227 65.0281C69.0752 66.5195 70.3148 67.7535 71.8107 68.5999L71.2214 70.228C70.9347 71.0202 70.3445 71.666 69.5808 72.0232C68.817 72.3803 67.9423 72.4197 67.149 72.1326L65.6533 71.5912L64.5721 74.5785L76.5372 78.9091L77.6184 75.9218L76.1228 75.3805C75.3294 75.0934 74.6825 74.5033 74.3243 73.74C73.9661 72.9768 73.9259 72.1029 74.2127 71.3106L74.8019 69.6826C76.493 69.9896 78.2353 69.8349 79.8448 69.2346C81.4543 68.6343 82.8712 67.6108 83.946 66.2722C87.7684 67.0915 92.1835 64.3825 93.5485 60.6111L94.6676 56.8581L88.6851 54.6928ZM66.1579 51.5025L66.665 50.1015L69.6563 51.1842L67.6204 56.8091C66.8575 56.1837 66.3072 55.3376 66.0452 54.3872C65.7833 53.4369 65.8227 52.4291 66.1579 51.5025ZM90.0881 60.1637C89.7508 61.0892 89.1356 61.8879 88.3264 62.4504C87.5172 63.013 86.5537 63.312 85.5675 63.3065L87.6039 57.6801L90.5952 58.7627L90.0881 60.1637Z" fill="url(#paint0_radial_182_11)"/>
<path d="M88.6851 54.6928L89.7998 51.613L73.3064 44.5226L72.9607 44.3062L72.161 44.0463L70.7374 48.1969L65.9134 45.188L65.4031 44.9959L65.1138 44.9281L64.7549 46.0316L63.1666 50.4199C61.8016 54.1913 63.5062 58.3101 66.9675 60.1271C66.9366 61.8435 67.3703 63.5368 68.2227 65.0281C69.0752 66.5195 70.3148 67.7535 71.8107 68.5999L71.2214 70.228C70.9347 71.0202 70.3445 71.666 69.5808 72.0232C68.817 72.3803 67.9423 72.4197 67.149 72.1326L65.6533 71.5912L64.5721 74.5785L76.5372 78.9091L77.6184 75.9218L76.1228 75.3805C75.3294 75.0934 74.6825 74.5033 74.3243 73.74C73.9661 72.9768 73.9259 72.1029 74.2127 71.3106L74.8019 69.6826C76.493 69.9896 78.2353 69.8349 79.8448 69.2346C81.4543 68.6343 82.8712 67.6108 83.946 66.2722C87.7684 67.0915 92.1835 64.3825 93.5485 60.6111L94.6676 56.8581L88.6851 54.6928ZM66.1579 51.5025L66.665 50.1015L69.6563 51.1842L67.6204 56.8091C66.8575 56.1837 66.3072 55.3376 66.0452 54.3872C65.7833 53.4369 65.8227 52.4291 66.1579 51.5025ZM90.0881 60.1637C89.7508 61.0892 89.1356 61.8879 88.3264 62.4504C87.5172 63.013 86.5537 63.312 85.5675 63.3065L87.6039 57.6801L90.5952 58.7627L90.0881 60.1637Z" fill="url(#paint1_linear_182_11)" fill-opacity="0.4" style="mix-blend-mode:overlay"/>
</g>
<path d="M88.544 54.6418L88.493 54.7828L88.634 54.8339L94.4834 56.951L93.406 60.5641C92.7362 62.4113 91.3173 64.0041 89.5919 65.0344C87.8651 66.0654 85.8442 66.5256 83.9774 66.1255L83.887 66.1061L83.829 66.1783C82.7712 67.4958 81.3765 68.5032 79.7923 69.094C78.2081 69.6849 76.4932 69.8372 74.8287 69.535L74.704 69.5124L74.6609 69.6315L74.0716 71.2596C73.7713 72.0893 73.8134 73.0045 74.1885 73.8037C74.5636 74.603 75.241 75.2209 76.0717 75.5216L77.4263 76.0118L76.4472 78.717L64.7642 74.4885L65.7433 71.7833L67.0979 72.2736C67.9286 72.5743 68.8446 72.5331 69.6443 72.159C70.4441 71.785 71.0621 71.1088 71.3625 70.279L71.9517 68.651L71.9948 68.5318L71.8845 68.4694C70.4122 67.6363 69.192 66.4216 68.353 64.9537C67.5139 63.4858 67.0871 61.8192 67.1175 60.1298L67.1192 60.0373L67.0373 59.9943C63.6402 58.211 61.969 54.1696 63.3077 50.4709L64.8959 46.0827L64.896 46.0827L64.8975 46.078L65.2138 45.1056L65.3594 45.1398L65.8466 45.3232L70.6581 48.3242L70.8181 48.424L70.8793 48.2456L72.255 44.2346L72.8967 44.4432L73.2268 44.6497L73.2365 44.6558L73.2471 44.6604L89.6106 51.6949L88.544 54.6418ZM66.0169 51.4515L66.0168 51.4515C65.6711 52.4073 65.6305 53.4468 65.9006 54.4271C66.1708 55.4074 66.7384 56.2801 67.5253 56.9251L67.6893 57.0596L67.7614 56.8602L69.7973 51.2352L69.8483 51.0942L69.7073 51.0431L66.716 49.9605L66.575 49.9094L66.5239 50.0505L66.0169 51.4515ZM90.229 60.2151L90.2291 60.2148L90.7362 58.8138L90.7873 58.6727L90.6462 58.6217L87.6549 57.539L87.5139 57.488L87.4628 57.629L85.4264 63.2555L85.3541 63.4553L85.5666 63.4565C86.5837 63.4621 87.5775 63.1538 88.412 62.5736C89.2466 61.9934 89.8812 61.1697 90.229 60.2151Z" stroke="url(#paint2_linear_182_11)" stroke-width="0.3" style="mix-blend-mode:overlay"/>
<g filter="url(#filter1_ii_182_11)">
<path d="M89.3343 53.6557L90.449 50.5759L72.5013 44.08L71.3866 47.1598L65.4041 44.9945L63.8158 49.3828C62.4508 53.1541 64.1554 57.273 67.6167 59.09C67.5858 60.8064 68.0195 62.4997 68.8719 63.991C69.7244 65.4824 70.964 66.7164 72.4599 67.5628L71.8706 69.1909C71.5839 69.9831 70.9937 70.6289 70.23 70.9861C69.4662 71.3432 68.5915 71.3826 67.7982 71.0955L66.3025 70.5541L65.2213 73.5414L77.1864 77.872L78.2676 74.8847L76.772 74.3434C75.9786 74.0563 75.3317 73.4662 74.9735 72.7029C74.6153 71.9397 74.5751 71.0658 74.8619 70.2735L75.4511 68.6455C77.1422 68.9525 78.8845 68.7977 80.494 68.1975C82.1035 67.5972 83.5204 66.5737 84.5952 65.2351C88.4176 66.0544 92.3636 63.9806 93.7286 60.2093L95.3168 55.821L89.3343 53.6557ZM66.8071 50.4654L67.3142 49.0644L70.3055 50.147L68.2696 55.772C67.5067 55.1466 66.9564 54.3005 66.6944 53.3501C66.4325 52.3998 66.4719 51.392 66.8071 50.4654ZM90.7373 59.1266C90.4 60.0521 89.7848 60.8508 88.9756 61.4133C88.1665 61.9758 87.2029 62.2748 86.2167 62.2694L88.2531 56.6429L91.2444 57.7256L90.7373 59.1266Z" fill="url(#paint3_radial_182_11)"/>
<path d="M89.3343 53.6557L90.449 50.5759L72.5013 44.08L71.3866 47.1598L65.4041 44.9945L63.8158 49.3828C62.4508 53.1541 64.1554 57.273 67.6167 59.09C67.5858 60.8064 68.0195 62.4997 68.8719 63.991C69.7244 65.4824 70.964 66.7164 72.4599 67.5628L71.8706 69.1909C71.5839 69.9831 70.9937 70.6289 70.23 70.9861C69.4662 71.3432 68.5915 71.3826 67.7982 71.0955L66.3025 70.5541L65.2213 73.5414L77.1864 77.872L78.2676 74.8847L76.772 74.3434C75.9786 74.0563 75.3317 73.4662 74.9735 72.7029C74.6153 71.9397 74.5751 71.0658 74.8619 70.2735L75.4511 68.6455C77.1422 68.9525 78.8845 68.7977 80.494 68.1975C82.1035 67.5972 83.5204 66.5737 84.5952 65.2351C88.4176 66.0544 92.3636 63.9806 93.7286 60.2093L95.3168 55.821L89.3343 53.6557ZM66.8071 50.4654L67.3142 49.0644L70.3055 50.147L68.2696 55.772C67.5067 55.1466 66.9564 54.3005 66.6944 53.3501C66.4325 52.3998 66.4719 51.392 66.8071 50.4654ZM90.7373 59.1266C90.4 60.0521 89.7848 60.8508 88.9756 61.4133C88.1665 61.9758 87.2029 62.2748 86.2167 62.2694L88.2531 56.6429L91.2444 57.7256L90.7373 59.1266Z" fill="url(#paint4_linear_182_11)" fill-opacity="0.4" style="mix-blend-mode:overlay"/>
</g>
<path d="M89.1932 53.6047L89.1422 53.7457L89.2832 53.7968L95.1247 55.911L93.5875 60.1582C92.2488 63.8569 88.3781 65.8925 84.6266 65.0884L84.5362 65.069L84.4783 65.1412C83.4204 66.4587 82.0257 67.4661 80.4415 68.0569C78.8574 68.6478 77.1424 68.8001 75.4779 68.4979L75.3532 68.4752L75.3101 68.5944L74.7208 70.2225C74.4205 71.0522 74.4626 71.9674 74.8377 72.7666C75.2128 73.5659 75.8902 74.1838 76.7209 74.4845L78.0755 74.9747L77.0964 77.6799L65.4134 73.4514L66.3925 70.7462L67.7471 71.2365C68.5778 71.5372 69.4938 71.496 70.2935 71.1219C71.0933 70.7479 71.7113 70.0717 72.0117 69.2419L72.6009 67.6139L72.644 67.4947L72.5337 67.4323C71.0614 66.5992 69.8412 65.3845 69.0022 63.9166C68.1631 62.4487 67.7363 60.782 67.7667 59.0927L67.7684 59.0002L67.6865 58.9572C64.2894 57.1739 62.6182 53.1325 63.9569 49.4338L65.4941 45.1866L71.3356 47.3009L71.4766 47.3519L71.5277 47.2109L72.5913 44.2721L90.2569 50.6659L89.1932 53.6047ZM66.6661 50.4144L66.666 50.4144C66.3203 51.3701 66.2797 52.4097 66.5498 53.39C66.82 54.3702 67.3876 55.243 68.1745 55.888L68.3385 56.0224L68.4106 55.8231L70.4465 50.1981L70.4975 50.0571L70.3565 50.006L67.3652 48.9234L67.2242 48.8723L67.1731 49.0133L66.6661 50.4144ZM90.8782 59.178L90.8783 59.1777L91.3854 57.7766L91.4365 57.6356L91.2954 57.5846L88.3041 56.5019L88.1631 56.4509L88.112 56.5919L86.0756 62.2184L86.0033 62.4182L86.2158 62.4194C87.2329 62.425 88.2267 62.1167 89.0612 61.5365C89.8958 60.9563 90.5304 60.1326 90.8782 59.178Z" stroke="url(#paint5_linear_182_11)" stroke-width="0.3" style="mix-blend-mode:overlay"/>
<g filter="url(#filter2_ii_182_11)">
<rect x="64" y="10" width="44" height="44" rx="8" fill="url(#paint6_linear_182_11)"/>
<g filter="url(#filter3_ii_182_11)">
<path d="M94 31.5L87.9333 25.3807C87.8136 25.26 87.6716 25.1643 87.5152 25.0989C87.3589 25.0336 87.1913 25 87.0221 25C86.8528 25 86.6853 25.0336 86.5289 25.0989C86.3726 25.1643 86.2305 25.26 86.1108 25.3807C85.9912 25.5014 85.8963 25.6447 85.8315 25.8024C85.7667 25.9601 85.7334 26.1292 85.7334 26.2999C85.7334 26.4706 85.7667 26.6396 85.8315 26.7973C85.8963 26.955 85.9912 27.0983 86.1108 27.219L89.0662 30.2L79.2889 30.2C78.947 30.2 78.6192 30.337 78.3775 30.5808C78.1358 30.8246 78 31.1552 78 31.5C78 31.8448 78.1358 32.1755 78.3775 32.4193C78.6192 32.6631 78.947 32.8001 79.2889 32.8001L89.0662 32.8001L86.1108 35.7811C85.9907 35.9015 85.8954 36.0448 85.8304 36.2025C85.7654 36.3602 85.7319 36.5294 85.7319 36.7002C85.7319 36.8711 85.7654 37.0402 85.8304 37.198C85.8954 37.3557 85.9907 37.4989 86.1108 37.6194C86.3525 37.8631 86.6803 38 87.0221 38C87.3638 38 87.6916 37.8631 87.9333 37.6194L94 31.5Z" fill="url(#paint7_linear_182_11)"/>
</g>
</g>
<g filter="url(#filter4_ii_182_11)">
<path d="M58.6516 13.0802L57.0879 5.81386L16.825 12.0316L15.8995 12.0316L14.0485 12.4944L16.3071 22.1923L3.4051 22.2122L2.19224 22.4571L1.55408 22.6749L2.19224 25.2297L4.42017 35.5831C6.33492 44.481 14.5726 50.3518 23.4183 49.6798C25.4253 53.0187 28.298 55.7538 31.7333 57.5962C35.1686 59.4387 39.0388 60.3201 42.9352 60.1473L43.7617 63.9884C44.164 65.8577 43.8062 67.8103 42.7671 69.4169C41.728 71.0234 40.0927 72.1522 38.2209 72.555L34.6922 73.3144L36.2089 80.3622L64.4385 74.2875L62.9219 67.2396L59.3932 67.999C57.5214 68.4017 55.5666 68.0455 53.9586 67.0086C52.3507 65.9716 51.2214 64.339 50.8191 62.4698L49.9926 58.6287C53.6151 57.1834 56.7802 54.7881 59.1535 51.6957C61.5269 48.6033 63.0203 44.9286 63.4762 41.0597C71.8154 38.0337 77.0468 27.5074 75.132 18.6095L72.7664 10.0429L58.6516 13.0802ZM11.4776 34.0644L10.7663 30.7589L17.8237 29.2402L20.6795 42.5114C18.459 42.2269 16.3818 41.2618 14.7339 39.749C13.0859 38.2363 11.9483 36.2503 11.4776 34.0644ZM67.9369 21.9149C68.4025 24.1013 68.1804 26.3782 67.3012 28.4345C66.4219 30.4908 64.9284 32.226 63.0248 33.4028L60.1682 20.1281L67.2256 18.6094L67.9369 21.9149Z" fill="url(#paint8_radial_182_11)"/>
<path d="M58.6516 13.0802L57.0879 5.81386L16.825 12.0316L15.8995 12.0316L14.0485 12.4944L16.3071 22.1923L3.4051 22.2122L2.19224 22.4571L1.55408 22.6749L2.19224 25.2297L4.42017 35.5831C6.33492 44.481 14.5726 50.3518 23.4183 49.6798C25.4253 53.0187 28.298 55.7538 31.7333 57.5962C35.1686 59.4387 39.0388 60.3201 42.9352 60.1473L43.7617 63.9884C44.164 65.8577 43.8062 67.8103 42.7671 69.4169C41.728 71.0234 40.0927 72.1522 38.2209 72.555L34.6922 73.3144L36.2089 80.3622L64.4385 74.2875L62.9219 67.2396L59.3932 67.999C57.5214 68.4017 55.5666 68.0455 53.9586 67.0086C52.3507 65.9716 51.2214 64.339 50.8191 62.4698L49.9926 58.6287C53.6151 57.1834 56.7802 54.7881 59.1535 51.6957C61.5269 48.6033 63.0203 44.9286 63.4762 41.0597C71.8154 38.0337 77.0468 27.5074 75.132 18.6095L72.7664 10.0429L58.6516 13.0802ZM11.4776 34.0644L10.7663 30.7589L17.8237 29.2402L20.6795 42.5114C18.459 42.2269 16.3818 41.2618 14.7339 39.749C13.0859 38.2363 11.9483 36.2503 11.4776 34.0644ZM67.9369 21.9149C68.4025 24.1013 68.1804 26.3782 67.3012 28.4345C66.4219 30.4908 64.9284 32.226 63.0248 33.4028L60.1682 20.1281L67.2256 18.6094L67.9369 21.9149Z" fill="url(#paint9_linear_182_11)" fill-opacity="0.4" style="mix-blend-mode:overlay"/>
</g>
<path d="M58.5049 13.1118L58.5365 13.2584L58.6831 13.2269L72.6595 10.2193L74.9863 18.6451C75.934 23.0548 75.1125 27.8739 73.0158 31.9682C70.9184 36.0639 67.5519 39.4212 63.4251 40.9187L63.3381 40.9503L63.3273 41.0422C62.8745 44.8842 61.3914 48.5334 59.0345 51.6044C56.6777 54.6753 53.5345 57.0541 49.937 58.4893L49.8193 58.5363L49.8459 58.6602L50.6725 62.5013C51.0831 64.4095 52.2359 66.0761 53.8773 67.1346C55.5187 68.1931 57.5142 68.5567 59.4247 68.1456L62.8068 67.4178L64.2603 74.1724L36.3239 80.184L34.8704 73.4294L38.2525 72.7017C40.1631 72.2905 41.8323 71.1383 42.893 69.4983C43.9537 67.8584 44.319 65.8651 43.9084 63.9569L43.0818 60.1158L43.0551 59.9919L42.9285 59.9975C39.0591 60.169 35.2157 59.2937 31.8042 57.4641C28.3927 55.6344 25.5399 52.9182 23.5469 49.6025L23.4992 49.5232L23.407 49.5302C14.6337 50.1967 6.4653 44.3739 4.56682 35.5515L2.33888 25.1981L2.33896 25.1981L2.33777 25.1934L1.73302 22.7723L2.23148 22.6022L3.42021 22.3621L16.3073 22.3423L16.496 22.342L16.4532 22.1583L14.228 12.6041L15.918 12.1816L16.825 12.1816L16.8365 12.1816L16.8479 12.1798L56.971 5.98369L58.5049 13.1118ZM10.7347 30.6123L10.5881 30.6438L10.6196 30.7905L11.3309 34.0959C11.8082 36.3122 12.9616 38.3258 14.6324 39.8595C16.3032 41.3933 18.4092 42.3717 20.6605 42.6602L20.8708 42.6871L20.8262 42.4799L17.9703 29.2087L17.9388 29.062L17.7921 29.0936L10.7347 30.6123ZM68.0836 21.8837L68.0836 21.8834L67.3723 18.5779L67.3407 18.4313L67.1941 18.4628L60.1367 19.9815L59.99 20.013L60.0216 20.1597L62.8781 33.4344L62.9229 33.6422L63.1037 33.5304C65.0335 32.3373 66.5477 30.5782 67.4391 28.4935C68.3305 26.4088 68.5556 24.1003 68.0836 21.8837Z" stroke="url(#paint10_linear_182_11)" stroke-width="0.3" style="mix-blend-mode:overlay"/>
<g filter="url(#filter5_ii_182_11)">
<path d="M58.6516 10.3037L57.088 3.03736L14.7435 12.1495L16.3071 19.4158L2.19231 22.4532L4.42025 32.8066C6.335 41.7045 14.5727 47.5753 23.4184 46.9033C25.4253 50.2422 28.2981 52.9773 31.7334 54.8197C35.1686 56.6622 39.0388 57.5436 42.9352 57.3708L43.7618 61.2119C44.164 63.0812 43.8062 65.0338 42.7671 66.6404C41.728 68.2469 40.0927 69.3757 38.221 69.7785L34.6923 70.5379L36.2089 77.5858L64.4386 71.511L62.922 64.4631L59.3933 65.2225C57.5215 65.6253 55.5666 65.269 53.9587 64.2321C52.3508 63.1951 51.2214 61.5625 50.8192 59.6933L49.9926 55.8522C53.6152 54.4069 56.7803 52.0116 59.1536 48.9192C61.5269 45.8268 63.0204 42.1521 63.4763 38.2832C71.8154 35.2572 76.9092 26.5177 74.9944 17.6197L72.7665 7.26638L58.6516 10.3037ZM11.4777 31.2879L10.7664 27.9824L17.8238 26.4637L20.6796 39.7349C18.4591 39.4504 16.3819 38.4853 14.7339 36.9725C13.086 35.4598 11.9484 33.4738 11.4777 31.2879ZM67.937 19.1384C68.4025 21.3248 68.1805 23.6017 67.3013 25.658C66.422 27.7143 64.9285 29.4495 63.0249 30.6263L60.1683 17.3516L67.2257 15.833L67.937 19.1384Z" fill="url(#paint11_radial_182_11)"/>
<path d="M58.6516 10.3037L57.088 3.03736L14.7435 12.1495L16.3071 19.4158L2.19231 22.4532L4.42025 32.8066C6.335 41.7045 14.5727 47.5753 23.4184 46.9033C25.4253 50.2422 28.2981 52.9773 31.7334 54.8197C35.1686 56.6622 39.0388 57.5436 42.9352 57.3708L43.7618 61.2119C44.164 63.0812 43.8062 65.0338 42.7671 66.6404C41.728 68.2469 40.0927 69.3757 38.221 69.7785L34.6923 70.5379L36.2089 77.5858L64.4386 71.511L62.922 64.4631L59.3933 65.2225C57.5215 65.6253 55.5666 65.269 53.9587 64.2321C52.3508 63.1951 51.2214 61.5625 50.8192 59.6933L49.9926 55.8522C53.6152 54.4069 56.7803 52.0116 59.1536 48.9192C61.5269 45.8268 63.0204 42.1521 63.4763 38.2832C71.8154 35.2572 76.9092 26.5177 74.9944 17.6197L72.7665 7.26638L58.6516 10.3037ZM11.4777 31.2879L10.7664 27.9824L17.8238 26.4637L20.6796 39.7349C18.4591 39.4504 16.3819 38.4853 14.7339 36.9725C13.086 35.4598 11.9484 33.4738 11.4777 31.2879ZM67.937 19.1384C68.4025 21.3248 68.1805 23.6017 67.3013 25.658C66.422 27.7143 64.9285 29.4495 63.0249 30.6263L60.1683 17.3516L67.2257 15.833L67.937 19.1384Z" fill="url(#paint12_linear_182_11)" fill-opacity="0.4" style="mix-blend-mode:overlay"/>
</g>
<path d="M58.505 10.3353L58.5366 10.4819L58.6832 10.4504L72.6514 7.44457L74.8478 17.6513C76.7463 26.4737 71.696 35.141 63.4251 38.1422L63.3382 38.1738L63.3273 38.2657C62.8746 42.1077 61.3915 45.7569 59.0346 48.8279C56.6777 51.8988 53.5346 54.2776 49.9371 55.7128L49.8193 55.7598L49.846 55.8837L50.6726 59.7248C51.0832 61.633 52.236 63.2996 53.8774 64.3581C55.5188 65.4166 57.5142 65.7803 59.4248 65.3691L62.8069 64.6413L64.2604 71.3959L36.324 77.4076L34.8705 70.653L38.2526 69.9252C40.1631 69.514 41.8324 68.3618 42.8931 66.7218C43.9538 65.0819 44.319 63.0886 43.9084 61.1804L43.0819 57.3393L43.0552 57.2154L42.9286 57.221C39.0591 57.3925 35.2157 56.5172 31.8043 54.6876C28.3928 52.8579 25.54 50.1417 23.547 46.826L23.4993 46.7467L23.407 46.7537C14.6337 47.4202 6.46537 41.5974 4.56689 32.775L2.37051 22.5683L16.3387 19.5625L16.4853 19.5309L16.4538 19.3843L14.9217 12.2645L56.9729 3.21556L58.505 10.3353ZM10.7348 27.8358L10.5882 27.8673L10.6197 28.014L11.331 31.3194C11.8083 33.5357 12.9617 35.5493 14.6325 37.083C16.3033 38.6168 18.4093 39.5952 20.6605 39.8837L20.8708 39.9106L20.8262 39.7034L17.9704 26.4322L17.9389 26.2855L17.7922 26.3171L10.7348 27.8358ZM68.0837 19.1072L68.0836 19.1069L67.3723 15.8014L67.3408 15.6548L67.1941 15.6863L60.1367 17.205L59.9901 17.2365L60.0216 17.3832L62.8782 30.6579L62.9229 30.8657L63.1037 30.7539C65.0336 29.5608 66.5478 27.8017 67.4392 25.717C68.3306 23.6323 68.5557 21.3238 68.0837 19.1072Z" stroke="url(#paint13_linear_182_11)" stroke-width="0.3" style="mix-blend-mode:overlay"/>
<defs>
<filter id="filter0_ii_182_11" x="62.6958" y="22.0057" width="31.9719" height="79.5922" filterUnits="userSpaceOnUse" color-interpolation-filters="sRGB">
<feFlood flood-opacity="0" result="BackgroundImageFix"/>
<feBlend mode="normal" in="SourceGraphic" in2="BackgroundImageFix" result="shape"/>
<feColorMatrix in="SourceAlpha" type="matrix" values="0 0 0 0 0 0 0 0 0 0 0 0 0 0 0 0 0 0 127 0" result="hardAlpha"/>
<feOffset dy="-22.0406"/>
<feGaussianBlur stdDeviation="26.5"/>
<feComposite in2="hardAlpha" operator="arithmetic" k2="-1" k3="1"/>
<feColorMatrix type="matrix" values="0 0 0 0 0 0 0 0 0 0 0 0 0 0 0 0 0 0 0.45 0"/>
<feBlend mode="overlay" in2="shape" result="effect1_innerShadow_182_11"/>
<feColorMatrix in="SourceAlpha" type="matrix" values="0 0 0 0 0 0 0 0 0 0 0 0 0 0 0 0 0 0 127 0" result="hardAlpha"/>
<feOffset dy="22.6889"/>
<feGaussianBlur stdDeviation="13.9699"/>
<feComposite in2="hardAlpha" operator="arithmetic" k2="-1" k3="1"/>
<feColorMatrix type="matrix" values="0 0 0 0 1 0 0 0 0 1 0 0 0 0 1 0 0 0 1 0"/>
<feBlend mode="overlay" in2="effect1_innerShadow_182_11" result="effect2_innerShadow_182_11"/>
</filter>
<filter id="filter1_ii_182_11" x="63.345" y="22.0393" width="31.9719" height="78.5215" filterUnits="userSpaceOnUse" color-interpolation-filters="sRGB">
<feFlood flood-opacity="0" result="BackgroundImageFix"/>
<feBlend mode="normal" in="SourceGraphic" in2="BackgroundImageFix" result="shape"/>
<feColorMatrix in="SourceAlpha" type="matrix" values="0 0 0 0 0 0 0 0 0 0 0 0 0 0 0 0 0 0 127 0" result="hardAlpha"/>
<feOffset dy="-22.0406"/>
<feGaussianBlur stdDeviation="26.5"/>
<feComposite in2="hardAlpha" operator="arithmetic" k2="-1" k3="1"/>
<feColorMatrix type="matrix" values="0 0 0 0 0 0 0 0 0 0 0 0 0 0 0 0 0 0 0.45 0"/>
<feBlend mode="overlay" in2="shape" result="effect1_innerShadow_182_11"/>
<feColorMatrix in="SourceAlpha" type="matrix" values="0 0 0 0 0 0 0 0 0 0 0 0 0 0 0 0 0 0 127 0" result="hardAlpha"/>
<feOffset dy="22.6889"/>
<feGaussianBlur stdDeviation="13.9699"/>
<feComposite in2="hardAlpha" operator="arithmetic" k2="-1" k3="1"/>
<feColorMatrix type="matrix" values="0 0 0 0 1 0 0 0 0 1 0 0 0 0 1 0 0 0 1 0"/>
<feBlend mode="overlay" in2="effect1_innerShadow_182_11" result="effect2_innerShadow_182_11"/>
</filter>
<filter id="filter2_ii_182_11" x="64" y="5" width="44" height="49" filterUnits="userSpaceOnUse" color-interpolation-filters="sRGB">
<feFlood flood-opacity="0" result="BackgroundImageFix"/>
<feBlend mode="normal" in="SourceGraphic" in2="BackgroundImageFix" result="shape"/>
<feColorMatrix in="SourceAlpha" type="matrix" values="0 0 0 0 0 0 0 0 0 0 0 0 0 0 0 0 0 0 127 0" result="hardAlpha"/>
<feOffset dy="-5"/>
<feGaussianBlur stdDeviation="4.45"/>
<feComposite in2="hardAlpha" operator="arithmetic" k2="-1" k3="1"/>
<feColorMatrix type="matrix" values="0 0 0 0 0 0 0 0 0 0 0 0 0 0 0 0 0 0 0.36 0"/>
<feBlend mode="overlay" in2="shape" result="effect1_innerShadow_182_11"/>
<feColorMatrix in="SourceAlpha" type="matrix" values="0 0 0 0 0 0 0 0 0 0 0 0 0 0 0 0 0 0 127 0" result="hardAlpha"/>
<feOffset dy="-1"/>
<feGaussianBlur stdDeviation="0.65"/>
<feComposite in2="hardAlpha" operator="arithmetic" k2="-1" k3="1"/>
<feColorMatrix type="matrix" values="0 0 0 0 1 0 0 0 0 1 0 0 0 0 1 0 0 0 0.49 0"/>
<feBlend mode="overlay" in2="effect1_innerShadow_182_11" result="effect2_innerShadow_182_11"/>
</filter>
<filter id="filter3_ii_182_11" x="78" y="25" width="16" height="13" filterUnits="userSpaceOnUse" color-interpolation-filters="sRGB">
<feFlood flood-opacity="0" result="BackgroundImageFix"/>
<feBlend mode="normal" in="SourceGraphic" in2="BackgroundImageFix" result="shape"/>
<feColorMatrix in="SourceAlpha" type="matrix" values="0 0 0 0 0 0 0 0 0 0 0 0 0 0 0 0 0 0 127 0" result="hardAlpha"/>
<feOffset/>
<feGaussianBlur stdDeviation="0.55"/>
<feComposite in2="hardAlpha" operator="arithmetic" k2="-1" k3="1"/>
<feColorMatrix type="matrix" values="0 0 0 0 0 0 0 0 0 0 0 0 0 0 0 0 0 0 0.78 0"/>
<feBlend mode="overlay" in2="shape" result="effect1_innerShadow_182_11"/>
<feColorMatrix in="SourceAlpha" type="matrix" values="0 0 0 0 0 0 0 0 0 0 0 0 0 0 0 0 0 0 127 0" result="hardAlpha"/>
<feOffset/>
<feGaussianBlur stdDeviation="0.45"/>
<feComposite in2="hardAlpha" operator="arithmetic" k2="-1" k3="1"/>
<feColorMatrix type="matrix" values="0 0 0 0 1 0 0 0 0 1 0 0 0 0 1 0 0 0 0.49 0"/>
<feBlend mode="overlay" in2="effect1_innerShadow_182_11" result="effect2_innerShadow_182_11"/>
</filter>
<filter id="filter4_ii_182_11" x="1.5542" y="-16.2268" width="73.9729" height="119.278" filterUnits="userSpaceOnUse" color-interpolation-filters="sRGB">
<feFlood flood-opacity="0" result="BackgroundImageFix"/>
<feBlend mode="normal" in="SourceGraphic" in2="BackgroundImageFix" result="shape"/>
<feColorMatrix in="SourceAlpha" type="matrix" values="0 0 0 0 0 0 0 0 0 0 0 0 0 0 0 0 0 0 127 0" result="hardAlpha"/>
<feOffset dy="-22.0406"/>
<feGaussianBlur stdDeviation="26.5"/>
<feComposite in2="hardAlpha" operator="arithmetic" k2="-1" k3="1"/>
<feColorMatrix type="matrix" values="0 0 0 0 0 0 0 0 0 0 0 0 0 0 0 0 0 0 0.45 0"/>
<feBlend mode="overlay" in2="shape" result="effect1_innerShadow_182_11"/>
<feColorMatrix in="SourceAlpha" type="matrix" values="0 0 0 0 0 0 0 0 0 0 0 0 0 0 0 0 0 0 127 0" result="hardAlpha"/>
<feOffset dy="22.6889"/>
<feGaussianBlur stdDeviation="13.9699"/>
<feComposite in2="hardAlpha" operator="arithmetic" k2="-1" k3="1"/>
<feColorMatrix type="matrix" values="0 0 0 0 1 0 0 0 0 1 0 0 0 0 1 0 0 0 1 0"/>
<feBlend mode="overlay" in2="effect1_innerShadow_182_11" result="effect2_innerShadow_182_11"/>
</filter>
<filter id="filter5_ii_182_11" x="2.19238" y="-19.0033" width="73.2046" height="119.278" filterUnits="userSpaceOnUse" color-interpolation-filters="sRGB">
<feFlood flood-opacity="0" result="BackgroundImageFix"/>
<feBlend mode="normal" in="SourceGraphic" in2="BackgroundImageFix" result="shape"/>
<feColorMatrix in="SourceAlpha" type="matrix" values="0 0 0 0 0 0 0 0 0 0 0 0 0 0 0 0 0 0 127 0" result="hardAlpha"/>
<feOffset dy="-22.0406"/>
<feGaussianBlur stdDeviation="26.5"/>
<feComposite in2="hardAlpha" operator="arithmetic" k2="-1" k3="1"/>
<feColorMatrix type="matrix" values="0 0 0 0 0 0 0 0 0 0 0 0 0 0 0 0 0 0 0.45 0"/>
<feBlend mode="overlay" in2="shape" result="effect1_innerShadow_182_11"/>
<feColorMatrix in="SourceAlpha" type="matrix" values="0 0 0 0 0 0 0 0 0 0 0 0 0 0 0 0 0 0 127 0" result="hardAlpha"/>
<feOffset dy="22.6889"/>
<feGaussianBlur stdDeviation="13.9699"/>
<feComposite in2="hardAlpha" operator="arithmetic" k2="-1" k3="1"/>
<feColorMatrix type="matrix" values="0 0 0 0 1 0 0 0 0 1 0 0 0 0 1 0 0 0 1 0"/>
<feBlend mode="overlay" in2="effect1_innerShadow_182_11" result="effect2_innerShadow_182_11"/>
</filter>
<radialGradient id="paint0_radial_182_11" cx="0" cy="0" r="1" gradientUnits="userSpaceOnUse" gradientTransform="translate(83.8374 58.5753) rotate(147.922) scale(22.1062 18.9728)">
<stop offset="0.169422" stop-color="#172477"/>
<stop offset="1" stop-color="#2C3876"/>
</radialGradient>
<linearGradient id="paint1_linear_182_11" x1="70.1943" y1="68.5657" x2="87.859" y2="60.9277" gradientUnits="userSpaceOnUse">
<stop stop-color="white" stop-opacity="0"/>
<stop offset="0.58324" stop-color="white"/>
<stop offset="1" stop-color="white" stop-opacity="0"/>
</linearGradient>
<linearGradient id="paint2_linear_182_11" x1="75.2078" y1="45.7126" x2="78.8892" y2="69.4272" gradientUnits="userSpaceOnUse">
<stop stop-color="white"/>
<stop offset="1" stop-color="#999999" stop-opacity="0"/>
</linearGradient>
<radialGradient id="paint3_radial_182_11" cx="0" cy="0" r="1" gradientUnits="userSpaceOnUse" gradientTransform="translate(84.4866 57.5382) rotate(147.922) scale(22.1062 18.9728)">
<stop offset="0.169422" stop-color="#2F4BFF"/>
<stop offset="1" stop-color="#758CFF"/>
</radialGradient>
<linearGradient id="paint4_linear_182_11" x1="70.8435" y1="67.5286" x2="88.5082" y2="59.8905" gradientUnits="userSpaceOnUse">
<stop stop-color="white" stop-opacity="0"/>
<stop offset="0.58324" stop-color="white"/>
<stop offset="1" stop-color="white" stop-opacity="0"/>
</linearGradient>
<linearGradient id="paint5_linear_182_11" x1="75.857" y1="44.6755" x2="79.5384" y2="68.3901" gradientUnits="userSpaceOnUse">
<stop stop-color="white"/>
<stop offset="1" stop-color="#999999" stop-opacity="0"/>
</linearGradient>
<linearGradient id="paint6_linear_182_11" x1="86" y1="30" x2="86" y2="60" gradientUnits="userSpaceOnUse">
<stop stop-color="white"/>
<stop offset="1" stop-color="#4C80BB"/>
</linearGradient>
<linearGradient id="paint7_linear_182_11" x1="94" y1="31.5" x2="78" y2="31.5" gradientUnits="userSpaceOnUse">
<stop stop-color="#2C8EFF"/>
<stop offset="1" stop-color="#005AC0"/>
</linearGradient>
<radialGradient id="paint8_radial_182_11" cx="0" cy="0" r="1" gradientUnits="userSpaceOnUse" gradientTransform="translate(54.0008 26.3847) rotate(115.881) scale(50.1652 43.0546)">
<stop offset="0.169422" stop-color="#172477"/>
<stop offset="1" stop-color="#2C3876"/>
</radialGradient>
<linearGradient id="paint9_linear_182_11" x1="39.7847" y1="62.0275" x2="64.5687" y2="26.0681" gradientUnits="userSpaceOnUse">
<stop stop-color="white" stop-opacity="0"/>
<stop offset="0.58324" stop-color="white"/>
<stop offset="1" stop-color="white" stop-opacity="0"/>
</linearGradient>
<linearGradient id="paint10_linear_182_11" x1="21.9153" y1="12.0316" x2="57.5474" y2="53.2167" gradientUnits="userSpaceOnUse">
<stop stop-color="white"/>
<stop offset="1" stop-color="#999999" stop-opacity="0"/>
</linearGradient>
<radialGradient id="paint11_radial_182_11" cx="0" cy="0" r="1" gradientUnits="userSpaceOnUse" gradientTransform="translate(54.0009 23.6082) rotate(115.881) scale(50.1652 43.0546)">
<stop offset="0.169422" stop-color="#2F4BFF"/>
<stop offset="1" stop-color="#758CFF"/>
</radialGradient>
<linearGradient id="paint12_linear_182_11" x1="39.7847" y1="59.251" x2="64.5688" y2="23.2916" gradientUnits="userSpaceOnUse">
<stop stop-color="white" stop-opacity="0"/>
<stop offset="0.58324" stop-color="white"/>
<stop offset="1" stop-color="white" stop-opacity="0"/>
</linearGradient>
<linearGradient id="paint13_linear_182_11" x1="21.9154" y1="9.25508" x2="57.5475" y2="50.4402" gradientUnits="userSpaceOnUse">
<stop stop-color="white"/>
<stop offset="1" stop-color="#999999" stop-opacity="0"/>
</linearGradient>
</defs>
</svg>
