<svg width="85" height="66" viewBox="0 0 85 66" fill="none" xmlns="http://www.w3.org/2000/svg">
<g filter="url(#filter0_ii_183_28)">
<path d="M80.2172 14.9594L75.3424 11.5744L78.7274 6.69952C78.7921 6.60514 78.817 6.48908 78.7967 6.37647C78.7764 6.26387 78.7125 6.16381 78.6189 6.09798L76.3161 4.4989C76.2219 4.43354 76.1056 4.40825 75.9928 4.4286C75.88 4.44894 75.7799 4.51326 75.7145 4.6074L72.3295 9.48224L67.4546 6.09719C67.3605 6.03182 67.2442 6.00653 67.1314 6.02688C67.0186 6.04722 66.9185 6.11154 66.8531 6.20568L65.254 8.50853C65.1887 8.60269 65.1634 8.71895 65.1837 8.83176C65.2041 8.94457 65.2684 9.04467 65.3625 9.11006L70.2374 12.4951L66.8523 17.3699C66.7869 17.4641 66.7617 17.5804 66.782 17.6932C66.8024 17.806 66.8667 17.9061 66.9608 17.9715L69.2637 19.5706C69.3578 19.6359 69.4741 19.6612 69.5869 19.6409C69.6997 19.6205 69.7998 19.5562 69.8652 19.4621L73.2502 14.5872L78.1251 17.9723C78.2192 18.0376 78.3355 18.0629 78.4483 18.0426C78.5611 18.0222 78.6612 17.9579 78.7266 17.8638L80.3257 15.5609C80.3911 15.4668 80.4163 15.3505 80.396 15.2377C80.3757 15.1249 80.3113 15.0248 80.2172 14.9594Z" fill="url(#paint0_radial_183_28)"/>
<path d="M80.2172 14.9594L75.3424 11.5744L78.7274 6.69952C78.7921 6.60514 78.817 6.48908 78.7967 6.37647C78.7764 6.26387 78.7125 6.16381 78.6189 6.09798L76.3161 4.4989C76.2219 4.43354 76.1056 4.40825 75.9928 4.4286C75.88 4.44894 75.7799 4.51326 75.7145 4.6074L72.3295 9.48224L67.4546 6.09719C67.3605 6.03182 67.2442 6.00653 67.1314 6.02688C67.0186 6.04722 66.9185 6.11154 66.8531 6.20568L65.254 8.50853C65.1887 8.60269 65.1634 8.71895 65.1837 8.83176C65.2041 8.94457 65.2684 9.04467 65.3625 9.11006L70.2374 12.4951L66.8523 17.3699C66.7869 17.4641 66.7617 17.5804 66.782 17.6932C66.8024 17.806 66.8667 17.9061 66.9608 17.9715L69.2637 19.5706C69.3578 19.6359 69.4741 19.6612 69.5869 19.6409C69.6997 19.6205 69.7998 19.5562 69.8652 19.4621L73.2502 14.5872L78.1251 17.9723C78.2192 18.0376 78.3355 18.0629 78.4483 18.0426C78.5611 18.0222 78.6612 17.9579 78.7266 17.8638L80.3257 15.5609C80.3911 15.4668 80.4163 15.3505 80.396 15.2377C80.3757 15.1249 80.3113 15.0248 80.2172 14.9594Z" fill="url(#paint1_linear_183_28)" fill-opacity="0.4" style="mix-blend-mode:overlay"/>
</g>
<path d="M75.2621 11.5888L75.295 11.5415L78.6799 6.66693C78.6799 6.66689 78.6799 6.66685 78.68 6.6668C78.736 6.58496 78.7576 6.48433 78.7399 6.38671C78.7223 6.28907 78.667 6.20231 78.5859 6.1452C78.5858 6.14518 78.5858 6.14515 78.5857 6.14513L76.2832 4.54626C76.2016 4.48961 76.1008 4.46769 76.0031 4.48532C75.9053 4.50295 75.8185 4.55869 75.7619 4.64028L72.3768 9.51511L72.344 9.56246L72.2966 9.52958L67.4218 6.14454C67.4218 6.14454 67.4218 6.14453 67.4218 6.14453C67.3402 6.08789 67.2394 6.06597 67.1416 6.0836C67.0439 6.10124 66.9571 6.15697 66.9005 6.23856L75.2621 11.5888ZM75.2621 11.5888L75.3095 11.6217L80.1843 15.0067C80.1843 15.0067 80.1843 15.0067 80.1843 15.0068C80.2659 15.0634 80.3216 15.1502 80.3393 15.2479C80.3569 15.3457 80.335 15.4465 80.2783 15.5281C80.2783 15.5281 80.2783 15.5281 80.2783 15.5281M75.2621 11.5888L80.2783 15.5281M78.6793 17.8309L78.6793 17.8309C78.6226 17.9125 78.5358 17.9682 78.4381 17.9859C78.3403 18.0035 78.2396 17.9816 78.158 17.9249C78.1579 17.9249 78.1579 17.9249 78.1579 17.9249L73.2831 14.5399L73.2358 14.507L73.2029 14.5544L69.8179 19.4292C69.8178 19.4292 69.8178 19.4292 69.8178 19.4292C69.7612 19.5108 69.6744 19.5665 69.5767 19.5841C69.4789 19.6018 69.3781 19.5799 69.2965 19.5232C69.2965 19.5232 69.2965 19.5232 69.2965 19.5232L66.9937 17.9241C66.9121 17.8675 66.8564 17.7807 66.8387 17.683C66.8211 17.5852 66.843 17.4844 66.8997 17.4028L70.2847 12.528L70.3176 12.4806L70.2702 12.4478L65.3954 9.06272C65.3954 9.06272 65.3954 9.06272 65.3954 9.06272C65.3138 9.00605 65.2581 8.91929 65.2404 8.82153C65.2228 8.72377 65.2447 8.62301 65.3014 8.5414C65.3014 8.5414 65.3014 8.5414 65.3014 8.54139L66.9004 6.23857L78.6793 17.8309ZM78.6793 17.8309L80.2783 15.5281M78.6793 17.8309L80.2783 15.5281" stroke="url(#paint2_linear_183_28)" stroke-width="0.115281" style="mix-blend-mode:overlay"/>
<g filter="url(#filter1_ii_183_28)">
<path d="M29.2988 18.0817C27.396 17.6702 25.7346 16.5197 24.6801 14.8833C23.6256 13.2469 23.2643 11.2586 23.6758 9.35586C24.0873 7.45309 25.2378 5.79171 26.8742 4.7372C28.5106 3.6827 30.4989 3.32144 32.4017 3.73291C34.3044 4.14438 35.9658 5.29487 37.0203 6.93128C38.0748 8.5677 38.4361 10.556 38.0246 12.4588C37.6131 14.3615 36.4627 16.0229 34.8262 17.0774C33.1898 18.1319 31.2015 18.4932 29.2988 18.0817ZM32.7895 1.93931C31.6118 1.68464 30.3955 1.66442 29.21 1.87982C28.0245 2.09521 26.893 2.542 25.8802 3.19468C23.8347 4.51281 22.3966 6.58953 21.8822 8.96799C21.3679 11.3465 21.8195 13.8318 23.1376 15.8773C23.7903 16.8902 24.636 17.7645 25.6266 18.4505C26.6172 19.1365 27.7332 19.6206 28.9109 19.8753C31.2894 20.3896 33.7747 19.9381 35.8202 18.6199C37.8658 17.3018 39.3039 15.2251 39.8182 12.8466C40.0729 11.6689 40.0931 10.4526 39.8777 9.2671C39.6623 8.08159 39.2155 6.95012 38.5628 5.93728C37.9102 4.92444 37.0644 4.05008 36.0738 3.3641C35.0832 2.67813 33.9672 2.19399 32.7895 1.93931Z" fill="url(#paint3_radial_183_28)"/>
<path d="M29.2988 18.0817C27.396 17.6702 25.7346 16.5197 24.6801 14.8833C23.6256 13.2469 23.2643 11.2586 23.6758 9.35586C24.0873 7.45309 25.2378 5.79171 26.8742 4.7372C28.5106 3.6827 30.4989 3.32144 32.4017 3.73291C34.3044 4.14438 35.9658 5.29487 37.0203 6.93128C38.0748 8.5677 38.4361 10.556 38.0246 12.4588C37.6131 14.3615 36.4627 16.0229 34.8262 17.0774C33.1898 18.1319 31.2015 18.4932 29.2988 18.0817ZM32.7895 1.93931C31.6118 1.68464 30.3955 1.66442 29.21 1.87982C28.0245 2.09521 26.893 2.542 25.8802 3.19468C23.8347 4.51281 22.3966 6.58953 21.8822 8.96799C21.3679 11.3465 21.8195 13.8318 23.1376 15.8773C23.7903 16.8902 24.636 17.7645 25.6266 18.4505C26.6172 19.1365 27.7332 19.6206 28.9109 19.8753C31.2894 20.3896 33.7747 19.9381 35.8202 18.6199C37.8658 17.3018 39.3039 15.2251 39.8182 12.8466C40.0729 11.6689 40.0931 10.4526 39.8777 9.2671C39.6623 8.08159 39.2155 6.95012 38.5628 5.93728C37.9102 4.92444 37.0644 4.05008 36.0738 3.3641C35.0832 2.67813 33.9672 2.19399 32.7895 1.93931Z" fill="url(#paint4_linear_183_28)" fill-opacity="0.4" style="mix-blend-mode:overlay"/>
</g>
<path d="M24.554 14.9646C25.6301 16.6344 27.3254 17.8084 29.2671 18.2283C31.2087 18.6482 33.2376 18.2796 34.9075 17.2035C36.5773 16.1274 37.7513 14.4321 38.1712 12.4905C38.5911 10.5488 38.2225 8.51989 37.1464 6.85003C36.0704 5.18018 34.375 4.00618 32.4334 3.5863C30.4917 3.16642 28.4628 3.53506 26.7929 4.61111C25.1231 5.68717 23.9491 7.3825 23.5292 9.32415C23.1093 11.2658 23.478 13.2947 24.554 14.9646ZM29.2368 2.0274C30.4029 1.81553 31.5994 1.83541 32.7578 2.08592C33.9163 2.33643 35.014 2.81266 35.9884 3.48742C36.9628 4.16218 37.7948 5.02225 38.4368 6.01853C39.0788 7.01481 39.5182 8.12778 39.7301 9.29391C39.942 10.46 39.9221 11.6565 39.6716 12.8149C39.1657 15.1545 37.7511 17.1973 35.739 18.4938C33.7269 19.7904 31.2822 20.2346 28.9426 19.7287C27.7842 19.4782 26.6864 19.002 25.712 18.3272C24.7376 17.6524 23.9057 16.7924 23.2637 15.7961C21.9671 13.784 21.5229 11.3393 22.0288 8.9997C22.5348 6.66012 23.9494 4.61735 25.9614 3.32076C26.9577 2.67876 28.0707 2.23928 29.2368 2.0274Z" stroke="url(#paint5_linear_183_28)" stroke-width="0.3" style="mix-blend-mode:overlay"/>
<g filter="url(#filter2_ii_183_28)">
<rect x="28.7551" y="11" width="44" height="44" rx="8" fill="url(#paint6_linear_183_28)"/>
<g filter="url(#filter3_ii_183_28)">
<path d="M58.7551 32.5L52.6884 26.3807C52.5688 26.26 52.4267 26.1643 52.2704 26.0989C52.114 26.0336 51.9464 26 51.7772 26C51.608 26 51.4404 26.0336 51.284 26.0989C51.1277 26.1643 50.9856 26.26 50.866 26.3807C50.7463 26.5014 50.6514 26.6447 50.5866 26.8024C50.5219 26.9601 50.4885 27.1292 50.4885 27.2999C50.4885 27.4706 50.5219 27.6396 50.5866 27.7973C50.6514 27.955 50.7463 28.0983 50.866 28.219L53.8213 31.2L44.044 31.2C43.7022 31.2 43.3743 31.337 43.1326 31.5808C42.8909 31.8246 42.7551 32.1552 42.7551 32.5C42.7551 32.8448 42.8909 33.1755 43.1326 33.4193C43.3743 33.6631 43.7022 33.8001 44.044 33.8001L53.8213 33.8001L50.866 36.7811C50.7459 36.9015 50.6506 37.0448 50.5855 37.2025C50.5205 37.3602 50.487 37.5294 50.487 37.7002C50.487 37.8711 50.5205 38.0402 50.5855 38.198C50.6506 38.3557 50.7459 38.4989 50.866 38.6194C51.1077 38.8631 51.4354 39 51.7772 39C52.119 39 52.4467 38.8631 52.6884 38.6194L58.7551 32.5Z" fill="url(#paint7_linear_183_28)"/>
</g>
<g filter="url(#filter4_ii_183_28)">
<path d="M68.5151 62.87C65.7166 62.2649 63.2731 60.5728 61.7222 58.166C60.1713 55.7593 59.64 52.835 60.2452 50.0365C60.8503 47.238 62.5424 44.7946 64.9492 43.2437C67.3559 41.6927 70.2802 41.1614 73.0787 41.7666C75.8772 42.3718 78.3206 44.0638 79.8715 46.4706C81.4225 48.8773 81.9538 51.8016 81.3486 54.6001C80.7434 57.3986 79.0514 59.8421 76.6446 61.393C74.2379 62.9439 71.3136 63.4752 68.5151 62.87ZM73.6491 39.1287C71.917 38.7541 70.1281 38.7244 68.3845 39.0412C66.641 39.358 64.9769 40.0151 63.4872 40.975C60.4788 42.9136 58.3637 45.968 57.6072 49.4661C56.8508 52.9642 57.5149 56.6195 59.4536 59.628C60.4135 61.1176 61.6574 62.4036 63.1143 63.4125C64.5712 64.4213 66.2126 65.1334 67.9446 65.508C71.4428 66.2644 75.0981 65.6003 78.1065 63.6616C81.115 61.723 83.2301 58.6687 83.9865 55.1705C84.3611 53.4385 84.3908 51.6496 84.074 49.906C83.7572 48.1624 83.1001 46.4983 82.1402 45.0087C81.1803 43.519 79.9364 42.2331 78.4795 41.2242C77.0226 40.2153 75.3812 39.5032 73.6491 39.1287Z" fill="url(#paint8_radial_183_28)"/>
<path d="M68.5151 62.87C65.7166 62.2649 63.2731 60.5728 61.7222 58.166C60.1713 55.7593 59.64 52.835 60.2452 50.0365C60.8503 47.238 62.5424 44.7946 64.9492 43.2437C67.3559 41.6927 70.2802 41.1614 73.0787 41.7666C75.8772 42.3718 78.3206 44.0638 79.8715 46.4706C81.4225 48.8773 81.9538 51.8016 81.3486 54.6001C80.7434 57.3986 79.0514 59.8421 76.6446 61.393C74.2379 62.9439 71.3136 63.4752 68.5151 62.87ZM73.6491 39.1287C71.917 38.7541 70.1281 38.7244 68.3845 39.0412C66.641 39.358 64.9769 40.0151 63.4872 40.975C60.4788 42.9136 58.3637 45.968 57.6072 49.4661C56.8508 52.9642 57.5149 56.6195 59.4536 59.628C60.4135 61.1176 61.6574 62.4036 63.1143 63.4125C64.5712 64.4213 66.2126 65.1334 67.9446 65.508C71.4428 66.2644 75.0981 65.6003 78.1065 63.6616C81.115 61.723 83.2301 58.6687 83.9865 55.1705C84.3611 53.4385 84.3908 51.6496 84.074 49.906C83.7572 48.1624 83.1001 46.4983 82.1402 45.0087C81.1803 43.519 79.9364 42.2331 78.4795 41.2242C77.0226 40.2153 75.3812 39.5032 73.6491 39.1287Z" fill="url(#paint9_linear_183_28)" fill-opacity="0.4" style="mix-blend-mode:overlay"/>
</g>
<path d="M61.5961 58.2473C63.1686 60.6875 65.646 62.4031 68.4834 63.0166C71.3208 63.6302 74.2857 63.0915 76.7259 61.5191C79.166 59.9466 80.8816 57.4692 81.4952 54.6318C82.1088 51.7944 81.5701 48.8295 79.9976 46.3893C78.4252 43.9491 75.9477 42.2336 73.1104 41.62C70.273 41.0064 67.3081 41.5451 64.8679 43.1176C62.4277 44.69 60.7121 47.1674 60.0986 50.0048C59.485 52.8422 60.0237 55.8071 61.5961 58.2473ZM68.4114 39.1887C70.1356 38.8755 71.9046 38.9049 73.6174 39.2753C75.3302 39.6457 76.9534 40.3498 78.3941 41.3475C79.8348 42.3452 81.0649 43.6168 82.0141 45.0899C82.9634 46.563 83.6132 48.2086 83.9264 49.9328C84.2397 51.657 84.2103 53.426 83.8399 55.1388C83.0919 58.5981 81.0003 61.6185 78.0253 63.5355C75.0503 65.4526 71.4356 66.1094 67.9763 65.3613C66.2635 64.9909 64.6404 64.2868 63.1997 63.2891C61.759 62.2915 60.5289 61.0198 59.5796 59.5467C57.6626 56.5717 57.0058 52.957 57.7538 49.4978C58.5019 46.0386 60.5935 43.0182 63.5685 41.1011C65.0415 40.1518 66.6872 39.502 68.4114 39.1887Z" stroke="url(#paint10_linear_183_28)" stroke-width="0.3" style="mix-blend-mode:overlay"/>
<g filter="url(#filter5_ii_183_28)">
<path d="M68.7912 61.5936C65.9927 60.9884 63.5493 59.2964 61.9983 56.8896C60.4474 54.4829 59.9161 51.5586 60.5213 48.7601C61.1265 45.9616 62.8185 43.5181 65.2253 41.9672C67.632 40.4163 70.5563 39.885 73.3548 40.4902C76.1533 41.0953 78.5968 42.7874 80.1477 45.1942C81.6986 47.6009 82.2299 50.5252 81.6247 53.3237C81.0196 56.1222 79.3275 58.5656 76.9207 60.1165C74.514 61.6675 71.5897 62.1988 68.7912 61.5936ZM73.9252 37.8522C72.1932 37.4777 70.4042 37.4479 68.6607 37.7647C66.9171 38.0815 65.253 38.7386 63.7634 39.6986C60.7549 41.6372 58.6398 44.6915 57.8834 48.1896C57.1269 51.6878 57.791 55.3431 59.7297 58.3515C60.6896 59.8412 61.9335 61.1271 63.3904 62.136C64.8473 63.1449 66.4887 63.857 68.2208 64.2315C71.7189 64.988 75.3742 64.3238 78.3827 62.3852C81.3911 60.4466 83.5062 57.3922 84.2626 53.8941C84.6372 52.162 84.6669 50.3731 84.3502 48.6295C84.0334 46.886 83.3762 45.2219 82.4163 43.7322C81.4564 42.2426 80.2125 40.9566 78.7556 39.9477C77.2987 38.9389 75.6573 38.2268 73.9252 37.8522Z" fill="url(#paint11_radial_183_28)"/>
<path d="M68.7912 61.5936C65.9927 60.9884 63.5493 59.2964 61.9983 56.8896C60.4474 54.4829 59.9161 51.5586 60.5213 48.7601C61.1265 45.9616 62.8185 43.5181 65.2253 41.9672C67.632 40.4163 70.5563 39.885 73.3548 40.4902C76.1533 41.0953 78.5968 42.7874 80.1477 45.1942C81.6986 47.6009 82.2299 50.5252 81.6247 53.3237C81.0196 56.1222 79.3275 58.5656 76.9207 60.1165C74.514 61.6675 71.5897 62.1988 68.7912 61.5936ZM73.9252 37.8522C72.1932 37.4777 70.4042 37.4479 68.6607 37.7647C66.9171 38.0815 65.253 38.7386 63.7634 39.6986C60.7549 41.6372 58.6398 44.6915 57.8834 48.1896C57.1269 51.6878 57.791 55.3431 59.7297 58.3515C60.6896 59.8412 61.9335 61.1271 63.3904 62.136C64.8473 63.1449 66.4887 63.857 68.2208 64.2315C71.7189 64.988 75.3742 64.3238 78.3827 62.3852C81.3911 60.4466 83.5062 57.3922 84.2626 53.8941C84.6372 52.162 84.6669 50.3731 84.3502 48.6295C84.0334 46.886 83.3762 45.2219 82.4163 43.7322C81.4564 42.2426 80.2125 40.9566 78.7556 39.9477C77.2987 38.9389 75.6573 38.2268 73.9252 37.8522Z" fill="url(#paint12_linear_183_28)" fill-opacity="0.4" style="mix-blend-mode:overlay"/>
</g>
<path d="M61.8723 56.9709C63.4447 59.411 65.9221 61.1266 68.7595 61.7402C71.5969 62.3538 74.5618 61.8151 77.002 60.2426C79.4422 58.6702 81.1578 56.1928 81.7713 53.3554C82.3849 50.518 81.8462 47.5531 80.2738 45.1129C78.7013 42.6727 76.2239 40.9571 73.3865 40.3436C70.5491 39.73 67.5842 40.2687 65.144 41.8411C62.7038 43.4136 60.9883 45.891 60.3747 48.7284C59.7611 51.5658 60.2998 54.5307 61.8723 56.9709ZM68.6875 37.9123C70.4117 37.599 72.1807 37.6285 73.8935 37.9988C75.6064 38.3692 77.2295 39.0734 78.6702 40.0711C80.1109 41.0687 81.341 42.3404 82.2902 43.8135C83.2395 45.2866 83.8893 46.9322 84.2026 48.6564C84.5158 50.3806 84.4864 52.1496 84.116 53.8624C83.368 57.3216 81.2764 60.342 78.3014 62.2591C75.3264 64.1762 71.7117 64.833 68.2525 64.0849C66.5396 63.7145 64.9165 63.0104 63.4758 62.0127C62.0351 61.015 60.805 59.7434 59.8558 58.2703C57.9387 55.2953 57.2819 51.6806 58.03 48.2214C58.778 44.7621 60.8696 41.7417 63.8446 39.8246C65.3177 38.8754 66.9633 38.2256 68.6875 37.9123Z" stroke="url(#paint13_linear_183_28)" stroke-width="0.3" style="mix-blend-mode:overlay"/>
</g>
<g filter="url(#filter6_ii_183_28)">
<path d="M36.3118 55.6506L27.0354 43.3021L39.3838 34.0258C39.6208 33.8455 39.7772 33.5791 39.8191 33.2843C39.8609 32.9895 39.785 32.6901 39.6076 32.4509L35.2255 26.6176C35.0463 26.3791 34.7797 26.2216 34.4844 26.1796C34.189 26.1377 33.8891 26.2147 33.6506 26.3939L21.3022 35.6702L12.0258 23.3218C11.8466 23.0833 11.58 22.9258 11.2847 22.8838C10.9894 22.8419 10.6895 22.9189 10.451 23.098L4.61763 27.4801C4.37916 27.6593 4.22162 27.9259 4.17967 28.2212C4.13771 28.5166 4.21477 28.8165 4.3939 29.055L13.6703 41.4034L1.32181 50.6798C1.08334 50.859 0.925806 51.1256 0.88385 51.4209C0.841895 51.7162 0.918953 52.0161 1.09808 52.2547L5.48017 58.088C5.65937 58.3265 5.92595 58.484 6.22128 58.5259C6.51661 58.5679 6.81651 58.4908 7.05503 58.3117L19.4035 49.0354L28.6798 61.3838C28.859 61.6223 29.1256 61.7798 29.4209 61.8218C29.7163 61.8637 30.0162 61.7867 30.2547 61.6075L36.088 57.2254C36.3265 57.0462 36.484 56.7797 36.526 56.4843C36.5679 56.189 36.4909 55.8891 36.3118 55.6506Z" fill="url(#paint14_radial_183_28)"/>
<path d="M36.3118 55.6506L27.0354 43.3021L39.3838 34.0258C39.6208 33.8455 39.7772 33.5791 39.8191 33.2843C39.8609 32.9895 39.785 32.6901 39.6076 32.4509L35.2255 26.6176C35.0463 26.3791 34.7797 26.2216 34.4844 26.1796C34.189 26.1377 33.8891 26.2147 33.6506 26.3939L21.3022 35.6702L12.0258 23.3218C11.8466 23.0833 11.58 22.9258 11.2847 22.8838C10.9894 22.8419 10.6895 22.9189 10.451 23.098L4.61763 27.4801C4.37916 27.6593 4.22162 27.9259 4.17967 28.2212C4.13771 28.5166 4.21477 28.8165 4.3939 29.055L13.6703 41.4034L1.32181 50.6798C1.08334 50.859 0.925806 51.1256 0.88385 51.4209C0.841895 51.7162 0.918953 52.0161 1.09808 52.2547L5.48017 58.088C5.65937 58.3265 5.92595 58.484 6.22128 58.5259C6.51661 58.5679 6.81651 58.4908 7.05503 58.3117L19.4035 49.0354L28.6798 61.3838C28.859 61.6223 29.1256 61.7798 29.4209 61.8218C29.7163 61.8637 30.0162 61.7867 30.2547 61.6075L36.088 57.2254C36.3265 57.0462 36.484 56.7797 36.526 56.4843C36.5679 56.189 36.4909 55.8891 36.3118 55.6506Z" fill="url(#paint15_linear_183_28)" fill-opacity="0.4" style="mix-blend-mode:overlay"/>
</g>
<path d="M26.9453 43.1822L26.8254 43.2723L26.9155 43.3922L36.1918 55.7407C36.3471 55.9474 36.4138 56.2073 36.3775 56.4632C36.3411 56.7192 36.2046 56.9502 35.9979 57.1055L30.1646 61.4876C29.9579 61.6428 29.698 61.7096 29.442 61.6733C29.1861 61.6369 28.9551 61.5004 28.7998 61.2937L19.5234 48.9453L19.4333 48.8253L19.3134 48.9154L6.96496 58.1918C6.75824 58.347 6.49833 58.4138 6.24238 58.3774C5.98642 58.3411 5.75539 58.2045 5.6001 57.9979L1.21802 52.1646C1.06278 51.9579 0.995998 51.6979 1.03236 51.442C1.06872 51.186 1.20525 50.955 1.41192 50.7997L13.7603 41.5234L13.8803 41.4333L13.7902 41.3133L4.51384 28.9649C4.51384 28.9649 4.51383 28.9649 4.51383 28.9649C4.3586 28.7582 4.29182 28.4983 4.32818 28.2423C4.36454 27.9864 4.50107 27.7554 4.70774 27.6L10.541 23.218C10.7478 23.0627 11.0077 22.996 11.2636 23.0323C11.5196 23.0687 11.7506 23.2052 11.9059 23.4119C11.9059 23.4119 11.9059 23.4119 11.9059 23.4119L21.1822 35.7603L21.2723 35.8802L21.3923 35.7901L33.7407 26.5138C33.9474 26.3586 34.2073 26.2918 34.4633 26.3281C34.7192 26.3645 34.9503 26.501 35.1056 26.7077L39.4871 32.5403C39.4872 32.5404 39.4873 32.5405 39.4874 32.5406C39.641 32.748 39.7069 33.0076 39.6706 33.2632C39.6342 33.5188 39.4987 33.7498 39.2934 33.9061C39.2933 33.9062 39.2931 33.9063 39.293 33.9064L26.9453 43.1822Z" stroke="url(#paint16_linear_183_28)" stroke-width="0.3" style="mix-blend-mode:overlay"/>
<defs>
<filter id="filter0_ii_183_28" x="65.1768" y="-4.04779" width="15.2261" height="32.4141" filterUnits="userSpaceOnUse" color-interpolation-filters="sRGB">
<feFlood flood-opacity="0" result="BackgroundImageFix"/>
<feBlend mode="normal" in="SourceGraphic" in2="BackgroundImageFix" result="shape"/>
<feColorMatrix in="SourceAlpha" type="matrix" values="0 0 0 0 0 0 0 0 0 0 0 0 0 0 0 0 0 0 127 0" result="hardAlpha"/>
<feOffset dy="-8.46951"/>
<feGaussianBlur stdDeviation="10.1831"/>
<feComposite in2="hardAlpha" operator="arithmetic" k2="-1" k3="1"/>
<feColorMatrix type="matrix" values="0 0 0 0 0 0 0 0 0 0 0 0 0 0 0 0 0 0 0.45 0"/>
<feBlend mode="overlay" in2="shape" result="effect1_innerShadow_183_28"/>
<feColorMatrix in="SourceAlpha" type="matrix" values="0 0 0 0 0 0 0 0 0 0 0 0 0 0 0 0 0 0 127 0" result="hardAlpha"/>
<feOffset dy="8.71861"/>
<feGaussianBlur stdDeviation="5.36818"/>
<feComposite in2="hardAlpha" operator="arithmetic" k2="-1" k3="1"/>
<feColorMatrix type="matrix" values="0 0 0 0 1 0 0 0 0 1 0 0 0 0 1 0 0 0 1 0"/>
<feBlend mode="overlay" in2="effect1_innerShadow_183_28" result="effect2_innerShadow_183_28"/>
</filter>
<filter id="filter1_ii_183_28" x="21.6748" y="-20.3086" width="18.3506" height="63.0801" filterUnits="userSpaceOnUse" color-interpolation-filters="sRGB">
<feFlood flood-opacity="0" result="BackgroundImageFix"/>
<feBlend mode="normal" in="SourceGraphic" in2="BackgroundImageFix" result="shape"/>
<feColorMatrix in="SourceAlpha" type="matrix" values="0 0 0 0 0 0 0 0 0 0 0 0 0 0 0 0 0 0 127 0" result="hardAlpha"/>
<feOffset dy="-22.0406"/>
<feGaussianBlur stdDeviation="26.5"/>
<feComposite in2="hardAlpha" operator="arithmetic" k2="-1" k3="1"/>
<feColorMatrix type="matrix" values="0 0 0 0 0 0 0 0 0 0 0 0 0 0 0 0 0 0 0.45 0"/>
<feBlend mode="overlay" in2="shape" result="effect1_innerShadow_183_28"/>
<feColorMatrix in="SourceAlpha" type="matrix" values="0 0 0 0 0 0 0 0 0 0 0 0 0 0 0 0 0 0 127 0" result="hardAlpha"/>
<feOffset dy="22.6889"/>
<feGaussianBlur stdDeviation="13.9699"/>
<feComposite in2="hardAlpha" operator="arithmetic" k2="-1" k3="1"/>
<feColorMatrix type="matrix" values="0 0 0 0 1 0 0 0 0 1 0 0 0 0 1 0 0 0 1 0"/>
<feBlend mode="overlay" in2="effect1_innerShadow_183_28" result="effect2_innerShadow_183_28"/>
</filter>
<filter id="filter2_ii_183_28" x="28.7551" y="6" width="55.8125" height="59.8129" filterUnits="userSpaceOnUse" color-interpolation-filters="sRGB">
<feFlood flood-opacity="0" result="BackgroundImageFix"/>
<feBlend mode="normal" in="SourceGraphic" in2="BackgroundImageFix" result="shape"/>
<feColorMatrix in="SourceAlpha" type="matrix" values="0 0 0 0 0 0 0 0 0 0 0 0 0 0 0 0 0 0 127 0" result="hardAlpha"/>
<feOffset dy="-5"/>
<feGaussianBlur stdDeviation="4.45"/>
<feComposite in2="hardAlpha" operator="arithmetic" k2="-1" k3="1"/>
<feColorMatrix type="matrix" values="0 0 0 0 0 0 0 0 0 0 0 0 0 0 0 0 0 0 0.36 0"/>
<feBlend mode="overlay" in2="shape" result="effect1_innerShadow_183_28"/>
<feColorMatrix in="SourceAlpha" type="matrix" values="0 0 0 0 0 0 0 0 0 0 0 0 0 0 0 0 0 0 127 0" result="hardAlpha"/>
<feOffset dy="-1"/>
<feGaussianBlur stdDeviation="0.65"/>
<feComposite in2="hardAlpha" operator="arithmetic" k2="-1" k3="1"/>
<feColorMatrix type="matrix" values="0 0 0 0 1 0 0 0 0 1 0 0 0 0 1 0 0 0 0.49 0"/>
<feBlend mode="overlay" in2="effect1_innerShadow_183_28" result="effect2_innerShadow_183_28"/>
</filter>
<filter id="filter3_ii_183_28" x="42.7551" y="26" width="16" height="13" filterUnits="userSpaceOnUse" color-interpolation-filters="sRGB">
<feFlood flood-opacity="0" result="BackgroundImageFix"/>
<feBlend mode="normal" in="SourceGraphic" in2="BackgroundImageFix" result="shape"/>
<feColorMatrix in="SourceAlpha" type="matrix" values="0 0 0 0 0 0 0 0 0 0 0 0 0 0 0 0 0 0 127 0" result="hardAlpha"/>
<feOffset/>
<feGaussianBlur stdDeviation="0.55"/>
<feComposite in2="hardAlpha" operator="arithmetic" k2="-1" k3="1"/>
<feColorMatrix type="matrix" values="0 0 0 0 0 0 0 0 0 0 0 0 0 0 0 0 0 0 0.78 0"/>
<feBlend mode="overlay" in2="shape" result="effect1_innerShadow_183_28"/>
<feColorMatrix in="SourceAlpha" type="matrix" values="0 0 0 0 0 0 0 0 0 0 0 0 0 0 0 0 0 0 127 0" result="hardAlpha"/>
<feOffset/>
<feGaussianBlur stdDeviation="0.45"/>
<feComposite in2="hardAlpha" operator="arithmetic" k2="-1" k3="1"/>
<feColorMatrix type="matrix" values="0 0 0 0 1 0 0 0 0 1 0 0 0 0 1 0 0 0 0.49 0"/>
<feBlend mode="overlay" in2="effect1_innerShadow_183_28" result="effect2_innerShadow_183_28"/>
</filter>
<filter id="filter4_ii_183_28" x="57.3022" y="16.7832" width="26.9893" height="71.7186" filterUnits="userSpaceOnUse" color-interpolation-filters="sRGB">
<feFlood flood-opacity="0" result="BackgroundImageFix"/>
<feBlend mode="normal" in="SourceGraphic" in2="BackgroundImageFix" result="shape"/>
<feColorMatrix in="SourceAlpha" type="matrix" values="0 0 0 0 0 0 0 0 0 0 0 0 0 0 0 0 0 0 127 0" result="hardAlpha"/>
<feOffset dy="-22.0406"/>
<feGaussianBlur stdDeviation="26.5"/>
<feComposite in2="hardAlpha" operator="arithmetic" k2="-1" k3="1"/>
<feColorMatrix type="matrix" values="0 0 0 0 0 0 0 0 0 0 0 0 0 0 0 0 0 0 0.45 0"/>
<feBlend mode="overlay" in2="shape" result="effect1_innerShadow_183_28"/>
<feColorMatrix in="SourceAlpha" type="matrix" values="0 0 0 0 0 0 0 0 0 0 0 0 0 0 0 0 0 0 127 0" result="hardAlpha"/>
<feOffset dy="22.6889"/>
<feGaussianBlur stdDeviation="13.9699"/>
<feComposite in2="hardAlpha" operator="arithmetic" k2="-1" k3="1"/>
<feColorMatrix type="matrix" values="0 0 0 0 1 0 0 0 0 1 0 0 0 0 1 0 0 0 1 0"/>
<feBlend mode="overlay" in2="effect1_innerShadow_183_28" result="effect2_innerShadow_183_28"/>
</filter>
<filter id="filter5_ii_183_28" x="57.5784" y="15.5067" width="26.9893" height="71.7186" filterUnits="userSpaceOnUse" color-interpolation-filters="sRGB">
<feFlood flood-opacity="0" result="BackgroundImageFix"/>
<feBlend mode="normal" in="SourceGraphic" in2="BackgroundImageFix" result="shape"/>
<feColorMatrix in="SourceAlpha" type="matrix" values="0 0 0 0 0 0 0 0 0 0 0 0 0 0 0 0 0 0 127 0" result="hardAlpha"/>
<feOffset dy="-22.0406"/>
<feGaussianBlur stdDeviation="26.5"/>
<feComposite in2="hardAlpha" operator="arithmetic" k2="-1" k3="1"/>
<feColorMatrix type="matrix" values="0 0 0 0 0 0 0 0 0 0 0 0 0 0 0 0 0 0 0.45 0"/>
<feBlend mode="overlay" in2="shape" result="effect1_innerShadow_183_28"/>
<feColorMatrix in="SourceAlpha" type="matrix" values="0 0 0 0 0 0 0 0 0 0 0 0 0 0 0 0 0 0 127 0" result="hardAlpha"/>
<feOffset dy="22.6889"/>
<feGaussianBlur stdDeviation="13.9699"/>
<feComposite in2="hardAlpha" operator="arithmetic" k2="-1" k3="1"/>
<feColorMatrix type="matrix" values="0 0 0 0 1 0 0 0 0 1 0 0 0 0 1 0 0 0 1 0"/>
<feBlend mode="overlay" in2="effect1_innerShadow_183_28" result="effect2_innerShadow_183_28"/>
</filter>
<filter id="filter6_ii_183_28" x="0.872559" y="0.832003" width="38.9578" height="83.6898" filterUnits="userSpaceOnUse" color-interpolation-filters="sRGB">
<feFlood flood-opacity="0" result="BackgroundImageFix"/>
<feBlend mode="normal" in="SourceGraphic" in2="BackgroundImageFix" result="shape"/>
<feColorMatrix in="SourceAlpha" type="matrix" values="0 0 0 0 0 0 0 0 0 0 0 0 0 0 0 0 0 0 127 0" result="hardAlpha"/>
<feOffset dy="-22.0406"/>
<feGaussianBlur stdDeviation="26.5"/>
<feComposite in2="hardAlpha" operator="arithmetic" k2="-1" k3="1"/>
<feColorMatrix type="matrix" values="0 0 0 0 0 0 0 0 0 0 0 0 0 0 0 0 0 0 0.45 0"/>
<feBlend mode="overlay" in2="shape" result="effect1_innerShadow_183_28"/>
<feColorMatrix in="SourceAlpha" type="matrix" values="0 0 0 0 0 0 0 0 0 0 0 0 0 0 0 0 0 0 127 0" result="hardAlpha"/>
<feOffset dy="22.6889"/>
<feGaussianBlur stdDeviation="13.9699"/>
<feComposite in2="hardAlpha" operator="arithmetic" k2="-1" k3="1"/>
<feColorMatrix type="matrix" values="0 0 0 0 1 0 0 0 0 1 0 0 0 0 1 0 0 0 1 0"/>
<feBlend mode="overlay" in2="effect1_innerShadow_183_28" result="effect2_innerShadow_183_28"/>
</filter>
<radialGradient id="paint0_radial_183_28" cx="0" cy="0" r="1" gradientUnits="userSpaceOnUse" gradientTransform="translate(74.9588 8.60942) rotate(116.347) scale(9.93878 8.41155)">
<stop offset="0.169422" stop-color="#B32FFF"/>
<stop offset="1" stop-color="#8A75FF"/>
</radialGradient>
<linearGradient id="paint1_linear_183_28" x1="72.0658" y1="15.6692" x2="77.3435" y2="8.91361" gradientUnits="userSpaceOnUse">
<stop stop-color="white" stop-opacity="0"/>
<stop offset="0.58324" stop-color="white"/>
<stop offset="1" stop-color="white" stop-opacity="0"/>
</linearGradient>
<linearGradient id="paint2_linear_183_28" x1="68.8677" y1="5.44263" x2="75.8834" y2="13.7347" gradientUnits="userSpaceOnUse">
<stop stop-color="white"/>
<stop offset="1" stop-color="#999999" stop-opacity="0"/>
</linearGradient>
<radialGradient id="paint3_radial_183_28" cx="0" cy="0" r="1" gradientUnits="userSpaceOnUse" gradientTransform="translate(35.2431 7.80481) rotate(138.774) scale(13.1839 11.1581)">
<stop offset="0.169422" stop-color="#862FFF"/>
<stop offset="1" stop-color="#7E75FF"/>
</radialGradient>
<linearGradient id="paint4_linear_183_28" x1="28.1231" y1="14.9975" x2="38.0133" y2="9.38461" gradientUnits="userSpaceOnUse">
<stop stop-color="white" stop-opacity="0"/>
<stop offset="0.58324" stop-color="white"/>
<stop offset="1" stop-color="white" stop-opacity="0"/>
</linearGradient>
<linearGradient id="paint5_linear_183_28" x1="29.3768" y1="0.839239" x2="33.7833" y2="14.5573" gradientUnits="userSpaceOnUse">
<stop stop-color="white"/>
<stop offset="1" stop-color="#999999" stop-opacity="0"/>
</linearGradient>
<linearGradient id="paint6_linear_183_28" x1="50.7551" y1="31" x2="50.7551" y2="61" gradientUnits="userSpaceOnUse">
<stop stop-color="white"/>
<stop offset="1" stop-color="#674CBB"/>
</linearGradient>
<linearGradient id="paint7_linear_183_28" x1="58.7551" y1="32.5" x2="42.7551" y2="32.5" gradientUnits="userSpaceOnUse">
<stop stop-color="#361263"/>
<stop offset="1" stop-color="#3A0288"/>
</linearGradient>
<radialGradient id="paint8_radial_183_28" cx="0" cy="0" r="1" gradientUnits="userSpaceOnUse" gradientTransform="translate(77.2578 47.7553) rotate(138.774) scale(19.3902 16.4107)">
<stop offset="0.169422" stop-color="#3F1082"/>
<stop offset="1" stop-color="#5049B8"/>
</radialGradient>
<linearGradient id="paint9_linear_183_28" x1="66.786" y1="58.3339" x2="81.332" y2="50.0788" gradientUnits="userSpaceOnUse">
<stop stop-color="white" stop-opacity="0"/>
<stop offset="0.58324" stop-color="white"/>
<stop offset="1" stop-color="white" stop-opacity="0"/>
</linearGradient>
<linearGradient id="paint10_linear_183_28" x1="68.6299" y1="37.5107" x2="75.1107" y2="57.6865" gradientUnits="userSpaceOnUse">
<stop stop-color="white"/>
<stop offset="1" stop-color="#999999" stop-opacity="0"/>
</linearGradient>
<radialGradient id="paint11_radial_183_28" cx="0" cy="0" r="1" gradientUnits="userSpaceOnUse" gradientTransform="translate(77.5339 46.4789) rotate(138.774) scale(19.3902 16.4107)">
<stop offset="0.169422" stop-color="#862FFF"/>
<stop offset="1" stop-color="#7E75FF"/>
</radialGradient>
<linearGradient id="paint12_linear_183_28" x1="67.0621" y1="57.0575" x2="81.6081" y2="48.8024" gradientUnits="userSpaceOnUse">
<stop stop-color="white" stop-opacity="0"/>
<stop offset="0.58324" stop-color="white"/>
<stop offset="1" stop-color="white" stop-opacity="0"/>
</linearGradient>
<linearGradient id="paint13_linear_183_28" x1="68.906" y1="36.2343" x2="75.3868" y2="56.4101" gradientUnits="userSpaceOnUse">
<stop stop-color="white"/>
<stop offset="1" stop-color="#999999" stop-opacity="0"/>
</linearGradient>
<radialGradient id="paint14_radial_183_28" cx="0" cy="0" r="1" gradientUnits="userSpaceOnUse" gradientTransform="translate(28.5117 35.6634) rotate(134.657) scale(25.8642 21.8898)">
<stop offset="0.169422" stop-color="#B32FFF"/>
<stop offset="1" stop-color="#8A75FF"/>
</radialGradient>
<linearGradient id="paint15_linear_183_28" x1="15.5926" y1="50.7402" x2="34.1546" y2="38.3645" gradientUnits="userSpaceOnUse">
<stop stop-color="white" stop-opacity="0"/>
<stop offset="0.58324" stop-color="white"/>
<stop offset="1" stop-color="white" stop-opacity="0"/>
</linearGradient>
<linearGradient id="paint16_linear_183_28" x1="16.0519" y1="22.8598" x2="26.6061" y2="49.0818" gradientUnits="userSpaceOnUse">
<stop stop-color="white"/>
<stop offset="1" stop-color="#999999" stop-opacity="0"/>
</linearGradient>
</defs>
</svg>
