<svg width="91" height="75" viewBox="0 0 91 75" fill="none" xmlns="http://www.w3.org/2000/svg">
<g filter="url(#filter0_ii_183_18)">
<path d="M66.5975 9.10651C66.2279 9.21086 65.8823 9.38702 65.5807 9.62492C65.2791 9.86282 65.0274 10.1578 64.8398 10.493C64.6522 10.8282 64.5325 11.1971 64.4875 11.5786C64.4425 11.9601 64.4731 12.3467 64.5775 12.7164L65.8501 17.2196C66.0327 17.8662 66.4324 18.4303 66.9819 18.8169C67.5315 19.2035 68.1974 19.389 68.8677 19.3424C69.538 19.2957 70.1718 19.0196 70.6625 18.5606C71.0318 18.2152 71.3031 17.7819 71.4537 17.3049C71.5443 17.0178 71.7494 16.769 72.0391 16.6872V16.6872C72.4619 16.5678 72.8972 16.8322 72.9862 17.2624L75.1395 27.6728C75.2306 28.112 75.4111 28.5278 75.6698 28.8942C75.9286 29.2606 76.26 29.5698 76.6434 29.8026C77.0269 30.0354 77.4541 30.1867 77.8986 30.2471C78.343 30.3076 78.7952 30.2758 79.2269 30.1539C79.6586 30.032 80.0605 29.8225 80.4077 29.5385C80.7549 29.2545 81.0399 28.9021 81.2449 28.5031C81.45 28.1042 81.5707 27.6673 81.5995 27.2196C81.6284 26.772 81.5648 26.3232 81.4126 25.9012L77.8024 15.9019C77.6533 15.489 77.886 15.0363 78.3086 14.9172V14.9172C78.5981 14.8357 78.9027 14.9405 79.1297 15.1378C79.5077 15.4663 79.9659 15.6941 80.4619 15.7956C81.1206 15.9304 81.8056 15.8342 82.4016 15.5231C82.9976 15.212 83.4683 14.705 83.7343 14.0875C84.0003 13.47 84.0454 12.7798 83.8621 12.1329L82.5912 7.62925C82.4086 6.98262 82.0089 6.41858 81.4593 6.03199C80.9097 5.6454 80.2438 5.45984 79.5735 5.50651C78.9032 5.55318 78.2694 5.82923 77.7787 6.28825C77.469 6.57801 77.2281 6.92952 77.0697 7.31681C76.9002 7.73124 76.6005 8.10562 76.1696 8.22731L70.3651 9.86654C69.9341 9.98825 69.4828 9.82587 69.1215 9.56126C68.8644 9.37298 68.577 9.22699 68.2698 9.13051C67.7266 8.95991 67.1454 8.95156 66.5975 9.10651Z" fill="url(#paint0_radial_183_18)"/>
<path d="M66.5975 9.10651C66.2279 9.21086 65.8823 9.38702 65.5807 9.62492C65.2791 9.86282 65.0274 10.1578 64.8398 10.493C64.6522 10.8282 64.5325 11.1971 64.4875 11.5786C64.4425 11.9601 64.4731 12.3467 64.5775 12.7164L65.8501 17.2196C66.0327 17.8662 66.4324 18.4303 66.9819 18.8169C67.5315 19.2035 68.1974 19.389 68.8677 19.3424C69.538 19.2957 70.1718 19.0196 70.6625 18.5606C71.0318 18.2152 71.3031 17.7819 71.4537 17.3049C71.5443 17.0178 71.7494 16.769 72.0391 16.6872V16.6872C72.4619 16.5678 72.8972 16.8322 72.9862 17.2624L75.1395 27.6728C75.2306 28.112 75.4111 28.5278 75.6698 28.8942C75.9286 29.2606 76.26 29.5698 76.6434 29.8026C77.0269 30.0354 77.4541 30.1867 77.8986 30.2471C78.343 30.3076 78.7952 30.2758 79.2269 30.1539C79.6586 30.032 80.0605 29.8225 80.4077 29.5385C80.7549 29.2545 81.0399 28.9021 81.2449 28.5031C81.45 28.1042 81.5707 27.6673 81.5995 27.2196C81.6284 26.772 81.5648 26.3232 81.4126 25.9012L77.8024 15.9019C77.6533 15.489 77.886 15.0363 78.3086 14.9172V14.9172C78.5981 14.8357 78.9027 14.9405 79.1297 15.1378C79.5077 15.4663 79.9659 15.6941 80.4619 15.7956C81.1206 15.9304 81.8056 15.8342 82.4016 15.5231C82.9976 15.212 83.4683 14.705 83.7343 14.0875C84.0003 13.47 84.0454 12.7798 83.8621 12.1329L82.5912 7.62925C82.4086 6.98262 82.0089 6.41858 81.4593 6.03199C80.9097 5.6454 80.2438 5.45984 79.5735 5.50651C78.9032 5.55318 78.2694 5.82923 77.7787 6.28825C77.469 6.57801 77.2281 6.92952 77.0697 7.31681C76.9002 7.73124 76.6005 8.10562 76.1696 8.22731L70.3651 9.86654C69.9341 9.98825 69.4828 9.82587 69.1215 9.56126C68.8644 9.37298 68.577 9.22699 68.2698 9.13051C67.7266 8.95991 67.1454 8.95156 66.5975 9.10651Z" fill="url(#paint1_linear_183_18)" fill-opacity="0.4" style="mix-blend-mode:overlay"/>
</g>
<path d="M66.6358 9.24197L66.6358 9.24195C67.1574 9.09447 67.7106 9.10241 68.2276 9.2648C68.52 9.35663 68.7936 9.49559 69.0383 9.67482C69.4179 9.95279 69.9141 10.1402 70.4033 10.002L76.2079 8.36277C76.697 8.22464 77.0219 7.80547 77.2 7.3701C77.3508 7.00144 77.58 6.66685 77.8749 6.39104C78.342 5.95411 78.9452 5.69135 79.5833 5.64692C80.2213 5.6025 80.8552 5.77913 81.3783 6.14712C81.9014 6.5151 82.2819 7.05199 82.4557 7.66751L83.7267 12.1711L83.7267 12.1713C83.9012 12.787 83.8582 13.4441 83.605 14.0318C83.3518 14.6196 82.9038 15.1022 82.3365 15.3983C81.7691 15.6944 81.1171 15.7861 80.4901 15.6577C80.018 15.5611 79.5818 15.3442 79.2221 15.0316C78.9696 14.8122 78.6173 14.684 78.2704 14.7817C77.7692 14.9229 77.4931 15.4599 77.67 15.9497L81.2802 25.949C81.2802 25.949 81.2802 25.949 81.2802 25.949C81.4258 26.3528 81.4867 26.7822 81.4591 27.2106C81.4315 27.6389 81.316 28.057 81.1197 28.4388C80.9235 28.8205 80.6508 29.1578 80.3186 29.4296C79.9863 29.7014 79.6017 29.9018 79.1886 30.0185C78.7755 30.1351 78.3429 30.1655 77.9176 30.1076C77.4922 30.0498 77.0834 29.905 76.7165 29.6823C76.3495 29.4595 76.0324 29.1636 75.7848 28.813C75.5372 28.4624 75.3645 28.0646 75.2774 27.6443C75.2774 27.6443 75.2774 27.6443 75.2774 27.6442L73.1241 17.2339C73.0185 16.7237 72.5023 16.4101 72.0009 16.5517C71.6537 16.6498 71.4202 16.9434 71.3194 17.2626C71.1761 17.7166 70.9179 18.129 70.5664 18.4578C70.0993 18.8947 69.496 19.1575 68.8579 19.2019C68.2199 19.2464 67.586 19.0697 67.0629 18.7017C66.5398 18.3338 66.1593 17.7969 65.9855 17.1814L65.9855 17.1813L64.713 12.6781C64.6136 12.3263 64.5844 11.9582 64.6273 11.5951C64.6701 11.232 64.784 10.8808 64.9626 10.5618C65.1412 10.2427 65.3808 9.96188 65.6679 9.73543C65.955 9.50898 66.2839 9.3413 66.6358 9.24197Z" stroke="url(#paint2_linear_183_18)" stroke-width="0.281513" style="mix-blend-mode:overlay"/>
<g filter="url(#filter1_ii_183_18)">
<path d="M29.0259 17.9773C28.9053 18.1412 28.8182 18.3272 28.7696 18.5248C28.7209 18.7223 28.7116 18.9275 28.7423 19.1286C28.7729 19.3298 28.8429 19.5229 28.9482 19.697C29.0535 19.8711 29.192 20.0227 29.3559 20.1432L31.3527 21.6114C31.6394 21.8223 31.9899 21.928 32.3454 21.9108C32.7009 21.8936 33.0396 21.7546 33.3045 21.517C33.5695 21.2794 33.7446 20.9579 33.8004 20.6064C33.8424 20.3419 33.8148 20.0725 33.7226 19.8242C33.667 19.6748 33.6719 19.504 33.7663 19.3756V19.3756C33.9042 19.1881 34.1721 19.157 34.3493 19.3079L38.6358 22.9585C38.8168 23.1125 39.0275 23.2276 39.2548 23.2965C39.4822 23.3655 39.7213 23.3869 39.9572 23.3595C40.1932 23.332 40.421 23.2563 40.6264 23.137C40.8319 23.0177 41.0105 22.8573 41.1513 22.6659C41.2921 22.4746 41.3919 22.2562 41.4447 22.0246C41.4974 21.7929 41.5018 21.5529 41.4578 21.3195C41.4137 21.086 41.322 20.8641 41.1884 20.6677C41.0549 20.4712 40.8823 20.3043 40.6815 20.1774L35.9197 17.1726C35.723 17.0485 35.673 16.7835 35.8109 16.5963V16.5963C35.9054 16.468 36.0668 16.4128 36.2259 16.4214C36.4907 16.4357 36.7563 16.3819 36.9967 16.263C37.3158 16.105 37.5708 15.842 37.7187 15.5181C37.8666 15.1941 37.8984 14.8291 37.8087 14.4845C37.7191 14.1399 37.5134 13.8367 37.2263 13.626L35.2301 12.1571C34.9434 11.9462 34.5928 11.8405 34.2374 11.8577C33.8819 11.8749 33.5432 12.0139 33.2783 12.2515C33.0133 12.4891 32.8382 12.8106 32.7824 13.1621C32.7472 13.384 32.7609 13.6092 32.8207 13.8226C32.8846 14.051 32.8812 14.305 32.7406 14.496L30.8478 17.0694C30.7073 17.2605 30.4658 17.3394 30.2288 17.3463C30.0601 17.3513 29.8924 17.3838 29.7327 17.4434C29.4501 17.5488 29.2045 17.7343 29.0259 17.9773Z" fill="url(#paint3_radial_183_18)"/>
<path d="M29.0259 17.9773C28.9053 18.1412 28.8182 18.3272 28.7696 18.5248C28.7209 18.7223 28.7116 18.9275 28.7423 19.1286C28.7729 19.3298 28.8429 19.5229 28.9482 19.697C29.0535 19.8711 29.192 20.0227 29.3559 20.1432L31.3527 21.6114C31.6394 21.8223 31.9899 21.928 32.3454 21.9108C32.7009 21.8936 33.0396 21.7546 33.3045 21.517C33.5695 21.2794 33.7446 20.9579 33.8004 20.6064C33.8424 20.3419 33.8148 20.0725 33.7226 19.8242C33.667 19.6748 33.6719 19.504 33.7663 19.3756V19.3756C33.9042 19.1881 34.1721 19.157 34.3493 19.3079L38.6358 22.9585C38.8168 23.1125 39.0275 23.2276 39.2548 23.2965C39.4822 23.3655 39.7213 23.3869 39.9572 23.3595C40.1932 23.332 40.421 23.2563 40.6264 23.137C40.8319 23.0177 41.0105 22.8573 41.1513 22.6659C41.2921 22.4746 41.3919 22.2562 41.4447 22.0246C41.4974 21.7929 41.5018 21.5529 41.4578 21.3195C41.4137 21.086 41.322 20.8641 41.1884 20.6677C41.0549 20.4712 40.8823 20.3043 40.6815 20.1774L35.9197 17.1726C35.723 17.0485 35.673 16.7835 35.8109 16.5963V16.5963C35.9054 16.468 36.0668 16.4128 36.2259 16.4214C36.4907 16.4357 36.7563 16.3819 36.9967 16.263C37.3158 16.105 37.5708 15.842 37.7187 15.5181C37.8666 15.1941 37.8984 14.8291 37.8087 14.4845C37.7191 14.1399 37.5134 13.8367 37.2263 13.626L35.2301 12.1571C34.9434 11.9462 34.5928 11.8405 34.2374 11.8577C33.8819 11.8749 33.5432 12.0139 33.2783 12.2515C33.0133 12.4891 32.8382 12.8106 32.7824 13.1621C32.7472 13.384 32.7609 13.6092 32.8207 13.8226C32.8846 14.051 32.8812 14.305 32.7406 14.496L30.8478 17.0694C30.7073 17.2605 30.4658 17.3394 30.2288 17.3463C30.0601 17.3513 29.8924 17.3838 29.7327 17.4434C29.4501 17.5488 29.2045 17.7343 29.0259 17.9773Z" fill="url(#paint4_linear_183_18)" fill-opacity="0.4" style="mix-blend-mode:overlay"/>
</g>
<path d="M29.086 18.0215L29.086 18.0215C29.256 17.7902 29.4898 17.6135 29.7587 17.5132C29.9108 17.4565 30.0704 17.4255 30.2309 17.4208C30.48 17.4136 30.7484 17.3304 30.9079 17.1136L32.8007 14.5402C32.9602 14.3233 32.9596 14.0424 32.8925 13.8025C32.8356 13.5994 32.8225 13.385 32.856 13.1738C32.9091 12.8392 33.0758 12.5331 33.328 12.307C33.5802 12.0809 33.9026 11.9485 34.241 11.9321C34.5793 11.9158 34.913 12.0164 35.1859 12.2171L37.1821 13.686L37.1822 13.6861C37.4554 13.8867 37.6512 14.1753 37.7366 14.5033C37.822 14.8313 37.7917 15.1788 37.6509 15.4871C37.5101 15.7954 37.2674 16.0458 36.9636 16.1962C36.7348 16.3094 36.482 16.3606 36.2299 16.3469C36.053 16.3374 35.8641 16.3984 35.7509 16.5521C35.5873 16.7742 35.6466 17.0884 35.8799 17.2356L40.6416 20.2405C40.8338 20.3619 40.999 20.5216 41.1268 20.7096C41.2546 20.8976 41.3423 21.1099 41.3845 21.3333C41.4267 21.5567 41.4224 21.7864 41.372 22.008C41.3215 22.2297 41.226 22.4386 41.0913 22.6218C40.9566 22.8049 40.7856 22.9583 40.589 23.0725C40.3924 23.1867 40.1744 23.2592 39.9486 23.2854C39.7228 23.3117 39.494 23.2912 39.2765 23.2252C39.0589 23.1592 38.8573 23.0491 38.6842 22.9018C38.6842 22.9018 38.6842 22.9018 38.6842 22.9018L34.3976 19.2511C34.1875 19.0722 33.8698 19.1091 33.7063 19.3314C33.5931 19.4853 33.591 19.684 33.6527 19.8502C33.7405 20.0866 33.7667 20.3429 33.7268 20.5947C33.6737 20.9293 33.507 21.2354 33.2548 21.4615C33.0025 21.6876 32.6801 21.82 32.3418 21.8364C32.0034 21.8527 31.6698 21.7521 31.3969 21.5514L31.3969 21.5514L29.4001 20.0832C29.2441 19.9684 29.1122 19.8241 29.012 19.6584C28.9117 19.4927 28.8451 19.3089 28.816 19.1174C28.7868 18.926 28.7956 18.7306 28.842 18.5426C28.8883 18.3546 28.9712 18.1775 29.086 18.0215Z" stroke="url(#paint5_linear_183_18)" stroke-width="0.1491" style="mix-blend-mode:overlay"/>
<g filter="url(#filter2_ii_183_18)">
<rect x="30.7708" y="18.9888" width="44" height="44" rx="8" fill="url(#paint6_linear_183_18)"/>
<g filter="url(#filter3_ii_183_18)">
<path d="M60.7708 40.4889L54.7041 34.3695C54.5844 34.2488 54.4423 34.1531 54.286 34.0878C54.1296 34.0225 53.9621 33.9888 53.7928 33.9888C53.6236 33.9888 53.456 34.0225 53.2997 34.0878C53.1433 34.1531 53.0013 34.2488 52.8816 34.3695C52.7619 34.4903 52.667 34.6335 52.6022 34.7913C52.5375 34.949 52.5042 35.118 52.5042 35.2887C52.5042 35.4594 52.5375 35.6284 52.6022 35.7861C52.667 35.9438 52.7619 36.0871 52.8816 36.2078L55.837 39.1888L46.0596 39.1888C45.7178 39.1888 45.39 39.3258 45.1483 39.5696C44.9065 39.8134 44.7708 40.1441 44.7708 40.4889C44.7708 40.8337 44.9065 41.1643 45.1483 41.4081C45.39 41.6519 45.7178 41.7889 46.0596 41.7889L55.837 41.7889L52.8816 44.7699C52.7615 44.8904 52.6662 45.0336 52.6011 45.1913C52.5361 45.3491 52.5026 45.5182 52.5026 45.6891C52.5026 45.8599 52.5361 46.029 52.6011 46.1868C52.6662 46.3445 52.7615 46.4877 52.8816 46.6082C53.1233 46.8519 53.4511 46.9888 53.7928 46.9888C54.1346 46.9888 54.4624 46.8519 54.7041 46.6082L60.7708 40.4889Z" fill="url(#paint7_linear_183_18)"/>
</g>
</g>
<g filter="url(#filter4_ii_183_18)">
<path d="M3.42885 47.74C2.9085 48.1813 2.48018 48.7208 2.16835 49.3276C1.85652 49.9344 1.66728 50.5968 1.61146 51.2768C1.55563 51.9567 1.63431 52.6411 1.84299 53.2906C2.05167 53.9402 2.38627 54.5423 2.82768 55.0625L8.20524 61.3998C8.97722 62.3099 10.039 62.9265 11.2121 63.1457C12.3852 63.365 13.598 63.1736 14.6466 62.6038C15.6952 62.034 16.5157 61.1205 16.9699 60.0169C17.3118 59.1864 17.4306 58.2863 17.322 57.4045C17.2567 56.8739 17.4046 56.3205 17.8124 55.9747V55.9747C18.4074 55.4699 19.3058 55.576 19.7669 56.2055L30.9246 71.4375C31.3956 72.08 31.994 72.6186 32.6823 73.0198C33.3706 73.421 34.1341 73.6761 34.9253 73.7694C35.7165 73.8626 36.5185 73.792 37.2812 73.5618C38.0439 73.3316 38.7511 72.9469 39.3586 72.4315C39.9661 71.9162 40.4611 71.2812 40.8126 70.5662C41.164 69.8513 41.3645 69.0716 41.4016 68.2758C41.4386 67.4799 41.3114 66.685 41.0279 65.9405C40.7443 65.1959 40.3105 64.5178 39.7534 63.9482L26.5449 50.455C25.9994 49.8978 26.0415 48.9947 26.6365 48.4906V48.4906C27.0441 48.1453 27.6136 48.09 28.1259 48.2413C28.9788 48.4933 29.8873 48.5235 30.7635 48.3216C31.9272 48.0536 32.963 47.3928 33.6965 46.4505C34.4301 45.5082 34.8166 44.342 34.7909 43.1481C34.7653 41.9542 34.3291 40.8056 33.5558 39.8957L28.1805 33.5565C27.4085 32.6464 26.3467 32.0299 25.1736 31.8106C24.0005 31.5914 22.7877 31.7827 21.7391 32.3525C20.6905 32.9223 19.87 33.8358 19.4158 34.9394C19.129 35.6361 18.9992 36.3816 19.0289 37.1242C19.0606 37.9189 18.8526 38.7448 18.2461 39.2593L10.0767 46.1892C9.47013 46.7037 8.6212 46.7742 7.84227 46.6131C7.28803 46.4985 6.71589 46.4747 6.14844 46.5454C5.14495 46.6704 4.19977 47.0856 3.42885 47.74Z" fill="url(#paint8_radial_183_18)"/>
<path d="M3.42885 47.74C2.9085 48.1813 2.48018 48.7208 2.16835 49.3276C1.85652 49.9344 1.66728 50.5968 1.61146 51.2768C1.55563 51.9567 1.63431 52.6411 1.84299 53.2906C2.05167 53.9402 2.38627 54.5423 2.82768 55.0625L8.20524 61.3998C8.97722 62.3099 10.039 62.9265 11.2121 63.1457C12.3852 63.365 13.598 63.1736 14.6466 62.6038C15.6952 62.034 16.5157 61.1205 16.9699 60.0169C17.3118 59.1864 17.4306 58.2863 17.322 57.4045C17.2567 56.8739 17.4046 56.3205 17.8124 55.9747V55.9747C18.4074 55.4699 19.3058 55.576 19.7669 56.2055L30.9246 71.4375C31.3956 72.08 31.994 72.6186 32.6823 73.0198C33.3706 73.421 34.1341 73.6761 34.9253 73.7694C35.7165 73.8626 36.5185 73.792 37.2812 73.5618C38.0439 73.3316 38.7511 72.9469 39.3586 72.4315C39.9661 71.9162 40.4611 71.2812 40.8126 70.5662C41.164 69.8513 41.3645 69.0716 41.4016 68.2758C41.4386 67.4799 41.3114 66.685 41.0279 65.9405C40.7443 65.1959 40.3105 64.5178 39.7534 63.9482L26.5449 50.455C25.9994 49.8978 26.0415 48.9947 26.6365 48.4906V48.4906C27.0441 48.1453 27.6136 48.09 28.1259 48.2413C28.9788 48.4933 29.8873 48.5235 30.7635 48.3216C31.9272 48.0536 32.963 47.3928 33.6965 46.4505C34.4301 45.5082 34.8166 44.342 34.7909 43.1481C34.7653 41.9542 34.3291 40.8056 33.5558 39.8957L28.1805 33.5565C27.4085 32.6464 26.3467 32.0299 25.1736 31.8106C24.0005 31.5914 22.7877 31.7827 21.7391 32.3525C20.6905 32.9223 19.87 33.8358 19.4158 34.9394C19.129 35.6361 18.9992 36.3816 19.0289 37.1242C19.0606 37.9189 18.8526 38.7448 18.2461 39.2593L10.0767 46.1892C9.47013 46.7037 8.6212 46.7742 7.84227 46.6131C7.28803 46.4985 6.71589 46.4747 6.14844 46.5454C5.14495 46.6704 4.19977 47.0856 3.42885 47.74Z" fill="url(#paint9_linear_183_18)" fill-opacity="0.4" style="mix-blend-mode:overlay"/>
</g>
<path d="M3.59054 47.9307L3.59064 47.9306C4.32446 47.3077 5.22415 46.9125 6.17934 46.7935C6.71948 46.7262 7.26408 46.7489 7.79166 46.858C8.60994 47.0271 9.54992 46.9638 10.2384 46.3798L18.4078 39.4499C19.0962 38.866 19.312 37.9491 19.2787 37.1143C19.2504 36.4074 19.374 35.6977 19.6469 35.0346C20.0794 33.9841 20.8603 33.1146 21.8584 32.5722C22.8565 32.0298 24.011 31.8477 25.1276 32.0564C26.2443 32.2651 27.255 32.8519 27.9898 33.7182L33.3651 40.0574L33.3653 40.0576C34.1014 40.9237 34.5166 42.0171 34.541 43.1535C34.5654 44.2899 34.1975 45.4 33.4993 46.297C32.801 47.1939 31.8151 47.8229 30.7074 48.078C29.8734 48.2701 29.0086 48.2414 28.1967 48.0016C27.6271 47.8333 26.9633 47.886 26.4749 48.2998C25.7692 48.8977 25.7192 49.9689 26.3662 50.6299L39.5747 64.123C40.1078 64.668 40.5229 65.317 40.7942 66.0294C41.0656 66.7419 41.1873 67.5026 41.1519 68.2641C41.1164 69.0257 40.9245 69.7718 40.5882 70.456C40.2519 71.1401 39.7783 71.7477 39.1969 72.2409C38.6155 72.734 37.9388 73.1022 37.209 73.3225C36.4791 73.5427 35.7117 73.6103 34.9546 73.5211C34.1975 73.4319 33.4668 73.1877 32.8082 72.8038C32.1495 72.4199 31.577 71.9045 31.1262 71.2897L19.9685 56.0577C19.4217 55.3112 18.3563 55.1854 17.6506 55.784C17.1621 56.1984 17.0012 56.8451 17.0739 57.4351C17.1773 58.2744 17.0642 59.1312 16.7387 59.9218C16.3063 60.9722 15.5254 61.8418 14.5273 62.3841C13.5291 62.9265 12.3747 63.1087 11.2581 62.9C10.1414 62.6913 9.13072 62.1044 8.39589 61.2381L8.39586 61.2381L3.01831 54.9008C2.59814 54.4056 2.27965 53.8325 2.08101 53.2142C1.88237 52.5959 1.80748 51.9445 1.86062 51.2972C1.91376 50.65 2.09388 50.0195 2.39071 49.4419C2.68753 48.8642 3.09524 48.3507 3.59054 47.9307Z" stroke="url(#paint10_linear_183_18)" stroke-width="0.5" style="mix-blend-mode:overlay"/>
<defs>
<filter id="filter0_ii_183_18" x="64.4673" y="-6.91001" width="19.5056" height="49.9614" filterUnits="userSpaceOnUse" color-interpolation-filters="sRGB">
<feFlood flood-opacity="0" result="BackgroundImageFix"/>
<feBlend mode="normal" in="SourceGraphic" in2="BackgroundImageFix" result="shape"/>
<feColorMatrix in="SourceAlpha" type="matrix" values="0 0 0 0 0 0 0 0 0 0 0 0 0 0 0 0 0 0 127 0" result="hardAlpha"/>
<feOffset dy="-12.4095"/>
<feGaussianBlur stdDeviation="14.9202"/>
<feComposite in2="hardAlpha" operator="arithmetic" k2="-1" k3="1"/>
<feColorMatrix type="matrix" values="0 0 0 0 0 0 0 0 0 0 0 0 0 0 0 0 0 0 0.45 0"/>
<feBlend mode="overlay" in2="shape" result="effect1_innerShadow_183_18"/>
<feColorMatrix in="SourceAlpha" type="matrix" values="0 0 0 0 0 0 0 0 0 0 0 0 0 0 0 0 0 0 127 0" result="hardAlpha"/>
<feOffset dy="12.7744"/>
<feGaussianBlur stdDeviation="7.86541"/>
<feComposite in2="hardAlpha" operator="arithmetic" k2="-1" k3="1"/>
<feColorMatrix type="matrix" values="0 0 0 0 1 0 0 0 0 1 0 0 0 0 1 0 0 0 1 0"/>
<feBlend mode="overlay" in2="effect1_innerShadow_183_18" result="effect2_innerShadow_183_18"/>
</filter>
<filter id="filter1_ii_183_18" x="28.7246" y="5.2834" width="12.7632" height="24.8535" filterUnits="userSpaceOnUse" color-interpolation-filters="sRGB">
<feFlood flood-opacity="0" result="BackgroundImageFix"/>
<feBlend mode="normal" in="SourceGraphic" in2="BackgroundImageFix" result="shape"/>
<feColorMatrix in="SourceAlpha" type="matrix" values="0 0 0 0 0 0 0 0 0 0 0 0 0 0 0 0 0 0 127 0" result="hardAlpha"/>
<feOffset dy="-6.5725"/>
<feGaussianBlur stdDeviation="7.90229"/>
<feComposite in2="hardAlpha" operator="arithmetic" k2="-1" k3="1"/>
<feColorMatrix type="matrix" values="0 0 0 0 0 0 0 0 0 0 0 0 0 0 0 0 0 0 0.45 0"/>
<feBlend mode="overlay" in2="shape" result="effect1_innerShadow_183_18"/>
<feColorMatrix in="SourceAlpha" type="matrix" values="0 0 0 0 0 0 0 0 0 0 0 0 0 0 0 0 0 0 127 0" result="hardAlpha"/>
<feOffset dy="6.76581"/>
<feGaussianBlur stdDeviation="4.16581"/>
<feComposite in2="hardAlpha" operator="arithmetic" k2="-1" k3="1"/>
<feColorMatrix type="matrix" values="0 0 0 0 1 0 0 0 0 1 0 0 0 0 1 0 0 0 1 0"/>
<feBlend mode="overlay" in2="effect1_innerShadow_183_18" result="effect2_innerShadow_183_18"/>
</filter>
<filter id="filter2_ii_183_18" x="30.7708" y="13.9888" width="44" height="49" filterUnits="userSpaceOnUse" color-interpolation-filters="sRGB">
<feFlood flood-opacity="0" result="BackgroundImageFix"/>
<feBlend mode="normal" in="SourceGraphic" in2="BackgroundImageFix" result="shape"/>
<feColorMatrix in="SourceAlpha" type="matrix" values="0 0 0 0 0 0 0 0 0 0 0 0 0 0 0 0 0 0 127 0" result="hardAlpha"/>
<feOffset dy="-5"/>
<feGaussianBlur stdDeviation="4.45"/>
<feComposite in2="hardAlpha" operator="arithmetic" k2="-1" k3="1"/>
<feColorMatrix type="matrix" values="0 0 0 0 0 0 0 0 0 0 0 0 0 0 0 0 0 0 0.36 0"/>
<feBlend mode="overlay" in2="shape" result="effect1_innerShadow_183_18"/>
<feColorMatrix in="SourceAlpha" type="matrix" values="0 0 0 0 0 0 0 0 0 0 0 0 0 0 0 0 0 0 127 0" result="hardAlpha"/>
<feOffset dy="-1"/>
<feGaussianBlur stdDeviation="0.65"/>
<feComposite in2="hardAlpha" operator="arithmetic" k2="-1" k3="1"/>
<feColorMatrix type="matrix" values="0 0 0 0 1 0 0 0 0 1 0 0 0 0 1 0 0 0 0.49 0"/>
<feBlend mode="overlay" in2="effect1_innerShadow_183_18" result="effect2_innerShadow_183_18"/>
</filter>
<filter id="filter3_ii_183_18" x="44.7708" y="33.9888" width="16" height="13" filterUnits="userSpaceOnUse" color-interpolation-filters="sRGB">
<feFlood flood-opacity="0" result="BackgroundImageFix"/>
<feBlend mode="normal" in="SourceGraphic" in2="BackgroundImageFix" result="shape"/>
<feColorMatrix in="SourceAlpha" type="matrix" values="0 0 0 0 0 0 0 0 0 0 0 0 0 0 0 0 0 0 127 0" result="hardAlpha"/>
<feOffset/>
<feGaussianBlur stdDeviation="0.55"/>
<feComposite in2="hardAlpha" operator="arithmetic" k2="-1" k3="1"/>
<feColorMatrix type="matrix" values="0 0 0 0 0 0 0 0 0 0 0 0 0 0 0 0 0 0 0.78 0"/>
<feBlend mode="overlay" in2="shape" result="effect1_innerShadow_183_18"/>
<feColorMatrix in="SourceAlpha" type="matrix" values="0 0 0 0 0 0 0 0 0 0 0 0 0 0 0 0 0 0 127 0" result="hardAlpha"/>
<feOffset/>
<feGaussianBlur stdDeviation="0.45"/>
<feComposite in2="hardAlpha" operator="arithmetic" k2="-1" k3="1"/>
<feColorMatrix type="matrix" values="0 0 0 0 1 0 0 0 0 1 0 0 0 0 1 0 0 0 0.49 0"/>
<feBlend mode="overlay" in2="effect1_innerShadow_183_18" result="effect2_innerShadow_183_18"/>
</filter>
<filter id="filter4_ii_183_18" x="1.59399" y="9.68155" width="39.814" height="86.8166" filterUnits="userSpaceOnUse" color-interpolation-filters="sRGB">
<feFlood flood-opacity="0" result="BackgroundImageFix"/>
<feBlend mode="normal" in="SourceGraphic" in2="BackgroundImageFix" result="shape"/>
<feColorMatrix in="SourceAlpha" type="matrix" values="0 0 0 0 0 0 0 0 0 0 0 0 0 0 0 0 0 0 127 0" result="hardAlpha"/>
<feOffset dy="-22.0406"/>
<feGaussianBlur stdDeviation="26.5"/>
<feComposite in2="hardAlpha" operator="arithmetic" k2="-1" k3="1"/>
<feColorMatrix type="matrix" values="0 0 0 0 0 0 0 0 0 0 0 0 0 0 0 0 0 0 0.45 0"/>
<feBlend mode="overlay" in2="shape" result="effect1_innerShadow_183_18"/>
<feColorMatrix in="SourceAlpha" type="matrix" values="0 0 0 0 0 0 0 0 0 0 0 0 0 0 0 0 0 0 127 0" result="hardAlpha"/>
<feOffset dy="22.6889"/>
<feGaussianBlur stdDeviation="13.9699"/>
<feComposite in2="hardAlpha" operator="arithmetic" k2="-1" k3="1"/>
<feColorMatrix type="matrix" values="0 0 0 0 1 0 0 0 0 1 0 0 0 0 1 0 0 0 1 0"/>
<feBlend mode="overlay" in2="effect1_innerShadow_183_18" result="effect2_innerShadow_183_18"/>
</filter>
<radialGradient id="paint0_radial_183_18" cx="0" cy="0" r="1" gradientUnits="userSpaceOnUse" gradientTransform="translate(81.5878 13.6121) rotate(155.802) scale(16.6055 14.0538)">
<stop offset="0.169422" stop-color="#FFA82F"/>
<stop offset="1" stop-color="#FFAA75"/>
</radialGradient>
<linearGradient id="paint1_linear_183_18" x1="70.3601" y1="19.6481" x2="84.3412" y2="16.5364" gradientUnits="userSpaceOnUse">
<stop stop-color="white" stop-opacity="0"/>
<stop offset="0.58324" stop-color="white"/>
<stop offset="1" stop-color="white" stop-opacity="0"/>
</linearGradient>
<linearGradient id="paint2_linear_183_18" x1="77.8299" y1="17.2096" x2="81.9319" y2="39.7318" gradientUnits="userSpaceOnUse">
<stop stop-color="white"/>
<stop offset="1" stop-color="#999999" stop-opacity="0"/>
</linearGradient>
<radialGradient id="paint3_radial_183_18" cx="0" cy="0" r="1" gradientUnits="userSpaceOnUse" gradientTransform="translate(36.757 14.9841) rotate(117.908) scale(8.79486 7.44342)">
<stop offset="0.169422" stop-color="#FFA82F"/>
<stop offset="1" stop-color="#FFAA75"/>
</radialGradient>
<linearGradient id="paint4_linear_183_18" x1="34.0278" y1="21.1593" x2="38.8591" y2="15.3106" gradientUnits="userSpaceOnUse">
<stop stop-color="white" stop-opacity="0"/>
<stop offset="0.58324" stop-color="white"/>
<stop offset="1" stop-color="white" stop-opacity="0"/>
</linearGradient>
<linearGradient id="paint5_linear_183_18" x1="36.3566" y1="17.7101" x2="45.3976" y2="25.7892" gradientUnits="userSpaceOnUse">
<stop stop-color="white"/>
<stop offset="1" stop-color="#999999" stop-opacity="0"/>
</linearGradient>
<linearGradient id="paint6_linear_183_18" x1="52.7708" y1="38.9888" x2="52.7708" y2="68.9888" gradientUnits="userSpaceOnUse">
<stop stop-color="white"/>
<stop offset="1" stop-color="#BB834C"/>
</linearGradient>
<linearGradient id="paint7_linear_183_18" x1="60.7708" y1="40.4888" x2="44.7708" y2="40.4888" gradientUnits="userSpaceOnUse">
<stop stop-color="#634112"/>
<stop offset="1" stop-color="#883102"/>
</linearGradient>
<radialGradient id="paint8_radial_183_18" cx="0" cy="0" r="1" gradientUnits="userSpaceOnUse" gradientTransform="translate(30.9722 43.9632) rotate(131.265) scale(29.4932 24.9612)">
<stop offset="0.169422" stop-color="#FFA82F"/>
<stop offset="1" stop-color="#FFAA75"/>
</radialGradient>
<linearGradient id="paint9_linear_183_18" x1="17.2835" y1="61.9971" x2="37.5779" y2="46.6572" gradientUnits="userSpaceOnUse">
<stop stop-color="white" stop-opacity="0"/>
<stop offset="0.58324" stop-color="white"/>
<stop offset="1" stop-color="white" stop-opacity="0"/>
</linearGradient>
<linearGradient id="paint10_linear_183_18" x1="27.5539" y1="52.5475" x2="50.7936" y2="85.9115" gradientUnits="userSpaceOnUse">
<stop stop-color="white"/>
<stop offset="1" stop-color="#999999" stop-opacity="0"/>
</linearGradient>
</defs>
</svg>
