<svg width="143" height="136" viewBox="0 0 143 136" fill="none" xmlns="http://www.w3.org/2000/svg">
<g opacity="0.64" filter="url(#filter0_f_130_94)">
<g filter="url(#filter1_ii_130_94)">
<path d="M42.4716 62.0733L41.0704 56.9353L12.5054 62.9489L11.8432 62.9849L10.5369 63.388L12.5298 70.2387L3.29968 70.7544L2.44144 70.9768L1.99333 71.1575L2.54922 72.9605L4.54569 80.2814C6.26151 86.5731 12.3835 90.4532 18.6862 89.6286C20.2518 91.9394 22.4135 93.7846 24.943 94.9693C27.4724 96.154 30.2756 96.6342 33.0567 96.3591L33.7973 99.0751C34.1578 100.397 33.9777 101.808 33.2967 102.998C32.6157 104.187 31.4896 105.059 30.1661 105.42L27.671 106.1L29.03 111.084L48.9912 105.64L47.6321 100.656L45.137 101.337C43.8135 101.698 42.401 101.519 41.2103 100.84C40.0195 100.16 39.1481 99.036 38.7876 97.7142L38.0469 94.9982C40.5826 93.8233 42.754 91.9866 44.3318 89.6818C45.9096 87.377 46.8353 84.6899 47.0111 81.9041C52.8598 79.4149 56.1935 71.6804 54.4777 65.3886L52.4522 59.3515L42.4716 62.0733ZM9.53598 78.9205L8.89858 76.5832L13.8889 75.2223L16.448 84.6063C14.8482 84.4891 13.3246 83.8793 12.0867 82.8611C10.8489 81.8428 9.95772 80.4661 9.53598 78.9205ZM49.4584 68.0333C49.8764 69.5794 49.8061 71.2171 49.2569 72.7225C48.7078 74.2279 47.7067 75.5274 46.3905 76.4434L43.8307 67.0569L48.821 65.696L49.4584 68.0333Z" fill="url(#paint0_radial_130_94)"/>
<path d="M42.4716 62.0733L41.0704 56.9353L12.5054 62.9489L11.8432 62.9849L10.5369 63.388L12.5298 70.2387L3.29968 70.7544L2.44144 70.9768L1.99333 71.1575L2.54922 72.9605L4.54569 80.2814C6.26151 86.5731 12.3835 90.4532 18.6862 89.6286C20.2518 91.9394 22.4135 93.7846 24.943 94.9693C27.4724 96.154 30.2756 96.6342 33.0567 96.3591L33.7973 99.0751C34.1578 100.397 33.9777 101.808 33.2967 102.998C32.6157 104.187 31.4896 105.059 30.1661 105.42L27.671 106.1L29.03 111.084L48.9912 105.64L47.6321 100.656L45.137 101.337C43.8135 101.698 42.401 101.519 41.2103 100.84C40.0195 100.16 39.1481 99.036 38.7876 97.7142L38.0469 94.9982C40.5826 93.8233 42.754 91.9866 44.3318 89.6818C45.9096 87.377 46.8353 84.6899 47.0111 81.9041C52.8598 79.4149 56.1935 71.6804 54.4777 65.3886L52.4522 59.3515L42.4716 62.0733ZM9.53598 78.9205L8.89858 76.5832L13.8889 75.2223L16.448 84.6063C14.8482 84.4891 13.3246 83.8793 12.0867 82.8611C10.8489 81.8428 9.95772 80.4661 9.53598 78.9205ZM49.4584 68.0333C49.8764 69.5794 49.8061 71.2171 49.2569 72.7225C48.7078 74.2279 47.7067 75.5274 46.3905 76.4434L43.8307 67.0569L48.821 65.696L49.4584 68.0333Z" fill="url(#paint1_linear_130_94)" fill-opacity="0.4" style="mix-blend-mode:overlay"/>
</g>
<path d="M42.3679 62.1016L42.3962 62.2053L42.4999 62.177L52.3826 59.4819L54.3748 65.4199C55.2243 68.538 54.8238 72.0178 53.4829 75.0286C52.1415 78.0405 49.8634 80.5734 46.969 81.8052L46.908 81.8312L46.9038 81.8973C46.7293 84.6638 45.81 87.3323 44.2431 89.6211C42.6762 91.9099 40.5199 93.734 38.0018 94.9007L37.9194 94.9389L37.9433 95.0265L38.6839 97.7425C39.0519 99.0918 39.9415 100.239 41.157 100.933C42.3725 101.626 43.8143 101.809 45.1653 101.441L47.5567 100.788L48.8592 105.565L29.1054 110.952L27.8029 106.175L30.1944 105.523C31.5454 105.155 32.6949 104.266 33.39 103.051C34.0852 101.836 34.269 100.396 33.901 99.0469L33.1603 96.3308L33.1365 96.2432L33.0461 96.2521C30.2843 96.5253 27.5005 96.0484 24.9886 94.872C22.4767 93.6955 20.3299 91.8631 18.7751 89.5683L18.738 89.5134L18.6722 89.522C12.4212 90.3399 6.35062 86.4914 4.64938 80.2531L2.65291 72.9323L2.65297 72.9322L2.65193 72.9289L2.12514 71.2202L2.47515 71.0791L3.31632 70.8612L12.5358 70.346L12.6708 70.3385L12.633 70.2087L10.6696 63.4595L11.8623 63.0915L12.5112 63.0563L12.5194 63.0558L12.5275 63.0541L40.9934 57.0613L42.3679 62.1016ZM9.43229 78.9488L9.43229 78.9488C9.8599 80.5159 10.7634 81.9117 12.0184 82.9441C13.2734 83.9765 14.8182 84.5946 16.4401 84.7135L16.5917 84.7246L16.5517 84.5781L13.9926 75.194L13.9643 75.0903L13.8606 75.1186L8.8703 76.4795L8.76661 76.5078L8.79489 76.6115L9.43229 78.9488ZM49.5621 68.0052L49.562 68.005L48.9246 65.6677L48.8964 65.564L48.7927 65.5923L43.8024 66.9532L43.6987 66.9815L43.727 67.0852L46.2868 76.4717L46.3268 76.6186L46.4518 76.5316C47.7862 75.603 48.8012 74.2855 49.3579 72.7593C49.9146 71.2332 49.986 69.5728 49.5621 68.0052Z" stroke="url(#paint2_linear_130_94)" stroke-width="0.214956" style="mix-blend-mode:overlay"/>
<g filter="url(#filter2_ii_130_94)">
<path d="M42.3639 60.0868L40.9627 54.9488L11.0209 63.1142L12.4221 68.2522L2.44154 70.974L4.43801 78.2949C6.15383 84.5866 12.2758 88.4667 18.5785 87.6421C20.1442 89.9529 22.3059 91.7981 24.8353 92.9828C27.3647 94.1675 30.168 94.6476 32.949 94.3726L33.6897 97.0886C34.0501 98.4103 33.87 99.8213 33.189 101.011C32.5081 102.201 31.3819 103.072 30.0584 103.433L27.5633 104.114L28.9224 109.097L48.8835 103.653L47.5245 98.6699L45.0293 99.3504C43.7058 99.7113 42.2933 99.5324 41.1026 98.853C39.9119 98.1736 39.0404 97.0494 38.68 95.7277L37.9393 93.0117C40.4749 91.8368 42.6463 90 44.2241 87.6953C45.8019 85.3905 46.7276 82.7034 46.9034 79.9176C52.7521 77.4284 56.0568 70.9776 54.341 64.6859L52.3445 57.365L42.3639 60.0868ZM9.4283 76.934L8.7909 74.5967L13.7812 73.2358L16.3403 82.6198C14.7406 82.5025 13.2169 81.8928 11.979 80.8746C10.7412 79.8563 9.85005 78.4796 9.4283 76.934ZM49.3507 66.0468C49.7687 67.5929 49.6984 69.2306 49.1493 70.736C48.6001 72.2414 47.599 73.5409 46.2828 74.4569L43.723 65.0704L48.7133 63.7095L49.3507 66.0468Z" fill="url(#paint3_radial_130_94)"/>
<path d="M42.3639 60.0868L40.9627 54.9488L11.0209 63.1142L12.4221 68.2522L2.44154 70.974L4.43801 78.2949C6.15383 84.5866 12.2758 88.4667 18.5785 87.6421C20.1442 89.9529 22.3059 91.7981 24.8353 92.9828C27.3647 94.1675 30.168 94.6476 32.949 94.3726L33.6897 97.0886C34.0501 98.4103 33.87 99.8213 33.189 101.011C32.5081 102.201 31.3819 103.072 30.0584 103.433L27.5633 104.114L28.9224 109.097L48.8835 103.653L47.5245 98.6699L45.0293 99.3504C43.7058 99.7113 42.2933 99.5324 41.1026 98.853C39.9119 98.1736 39.0404 97.0494 38.68 95.7277L37.9393 93.0117C40.4749 91.8368 42.6463 90 44.2241 87.6953C45.8019 85.3905 46.7276 82.7034 46.9034 79.9176C52.7521 77.4284 56.0568 70.9776 54.341 64.6859L52.3445 57.365L42.3639 60.0868ZM9.4283 76.934L8.7909 74.5967L13.7812 73.2358L16.3403 82.6198C14.7406 82.5025 13.2169 81.8928 11.979 80.8746C10.7412 79.8563 9.85005 78.4796 9.4283 76.934ZM49.3507 66.0468C49.7687 67.5929 49.6984 69.2306 49.1493 70.736C48.6001 72.2414 47.599 73.5409 46.2828 74.4569L43.723 65.0704L48.7133 63.7095L49.3507 66.0468Z" fill="url(#paint4_linear_130_94)" fill-opacity="0.4" style="mix-blend-mode:overlay"/>
</g>
<path d="M42.2602 60.1151L42.2885 60.2188L42.3922 60.1905L52.2691 57.497L54.2373 64.7141C55.9385 70.9524 52.6622 77.3499 46.8613 79.8187L46.8003 79.8447L46.7961 79.9108C46.6216 82.6772 45.7023 85.3458 44.1354 87.6346C42.5685 89.9234 40.4122 91.7474 37.8941 92.9142L37.8117 92.9523L37.8356 93.04L38.5763 95.756C38.9442 97.1053 39.8338 98.2529 41.0493 98.9464C42.2648 99.6399 43.7066 99.8225 45.0576 99.4541L47.4491 98.8019L48.7516 103.578L28.9978 108.965L27.6953 104.189L30.0867 103.537C31.4377 103.168 32.5872 102.279 33.2823 101.065C33.9775 99.85 34.1613 98.4096 33.7934 97.0603L33.0527 94.3443L33.0288 94.2567L32.9384 94.2656C30.1766 94.5388 27.3928 94.0619 24.8809 92.8855C22.369 91.709 20.2223 89.8766 18.6675 87.5818L18.6303 87.5269L18.5645 87.5355C12.3135 88.3534 6.24294 84.5049 4.5417 78.2666L2.57351 71.0494L12.4504 68.3559L12.5541 68.3276L12.5258 68.2239L11.1529 63.1896L40.8873 55.0807L42.2602 60.1151ZM9.32461 76.9622L9.32462 76.9623C9.75222 78.5294 10.6557 79.9252 11.9108 80.9576C13.1658 81.9899 14.7106 82.6081 16.3325 82.727L16.484 82.7381L16.444 82.5915L13.8849 73.2075L13.8566 73.1038L13.7529 73.1321L8.76262 74.493L8.65893 74.5213L8.68721 74.625L9.32461 76.9622ZM49.4544 66.0187L49.4544 66.0185L48.817 63.6812L48.7887 63.5775L48.685 63.6058L43.6947 64.9667L43.591 64.995L43.6193 65.0986L46.1791 74.4852L46.2192 74.6321L46.3442 74.5451C47.6785 73.6165 48.6935 72.299 49.2502 70.7728C49.807 69.2466 49.8783 67.5863 49.4544 66.0187Z" stroke="url(#paint5_linear_130_94)" stroke-width="0.214956" style="mix-blend-mode:overlay"/>
</g>
<g filter="url(#filter3_ii_130_94)">
<path d="M104.899 40.8346L106.308 31.8043L57.3495 21.191L56.2871 20.7831L53.9583 20.4982L52.2755 32.6261L37.4568 26.9608L35.9566 26.7073L35.5338 30.1604L32.7273 42.7566C31.0024 53.8145 37.8701 64.1852 48.3202 67.3135C49.1519 72.031 51.2437 76.4371 54.3747 80.0665C57.5058 83.6959 61.5597 86.4138 66.1085 87.9333L65.3639 92.7068C65.0015 95.0298 63.73 97.1135 61.8289 98.4995C59.9279 99.8855 57.5531 100.46 55.227 100.098L50.8417 99.4135L49.4755 108.172L84.558 113.645L85.9242 104.886L81.5389 104.202C79.2128 103.839 77.1259 102.568 75.7373 100.669C74.3487 98.7699 73.7721 96.3979 74.1345 94.0749L74.8791 89.3014C79.6745 89.2395 84.3637 87.8853 88.4513 85.3819C92.5389 82.8785 95.8733 79.3188 98.1022 75.0787C109.009 75.2817 119.654 65.505 121.379 54.4471L122.44 43.5707L104.899 40.8346ZM41.4979 44.1246L42.1386 40.0168L50.9093 41.3849L48.3366 57.8776C45.9132 56.5721 43.9543 54.5485 42.7296 52.0855C41.5048 49.6226 41.0745 46.8413 41.4979 44.1246ZM111.663 55.0693C111.233 57.7842 109.975 60.3 108.059 62.2727C106.143 64.2455 103.664 65.5788 100.96 66.0905L103.533 49.5933L112.304 50.9614L111.663 55.0693Z" fill="url(#paint6_radial_130_94)"/>
<path d="M104.899 40.8346L106.308 31.8043L57.3495 21.191L56.2871 20.7831L53.9583 20.4982L52.2755 32.6261L37.4568 26.9608L35.9566 26.7073L35.5338 30.1604L32.7273 42.7566C31.0024 53.8145 37.8701 64.1852 48.3202 67.3135C49.1519 72.031 51.2437 76.4371 54.3747 80.0665C57.5058 83.6959 61.5597 86.4138 66.1085 87.9333L65.3639 92.7068C65.0015 95.0298 63.73 97.1135 61.8289 98.4995C59.9279 99.8855 57.5531 100.46 55.227 100.098L50.8417 99.4135L49.4755 108.172L84.558 113.645L85.9242 104.886L81.5389 104.202C79.2128 103.839 77.1259 102.568 75.7373 100.669C74.3487 98.7699 73.7721 96.3979 74.1345 94.0749L74.8791 89.3014C79.6745 89.2395 84.3637 87.8853 88.4513 85.3819C92.5389 82.8785 95.8733 79.3188 98.1022 75.0787C109.009 75.2817 119.654 65.505 121.379 54.4471L122.44 43.5707L104.899 40.8346ZM41.4979 44.1246L42.1386 40.0168L50.9093 41.3849L48.3366 57.8776C45.9132 56.5721 43.9543 54.5485 42.7296 52.0855C41.5048 49.6226 41.0745 46.8413 41.4979 44.1246ZM111.663 55.0693C111.233 57.7842 109.975 60.3 108.059 62.2727C106.143 64.2455 103.664 65.5788 100.96 66.0905L103.533 49.5933L112.304 50.9614L111.663 55.0693Z" fill="url(#paint7_linear_130_94)" fill-opacity="0.4" style="mix-blend-mode:overlay"/>
</g>
<path d="M104.717 40.8061L104.689 40.9884L104.871 41.0168L122.24 43.7261L121.196 54.4239C120.34 59.9034 117.272 65.073 113.061 68.8484C108.847 72.6251 103.503 74.9948 98.1057 74.8943L97.9919 74.8922L97.939 74.9929C95.7255 79.2035 92.4143 82.7385 88.355 85.2246C84.2957 87.7107 79.639 89.0555 74.8767 89.117L74.7209 89.119L74.6968 89.273L73.9523 94.0465C73.5824 96.4179 74.1709 98.8392 75.5884 100.778C77.0058 102.717 79.1361 104.014 81.5104 104.384L85.7135 105.04L84.4041 113.434L49.6861 108.018L50.9955 99.6242L55.1986 100.28C57.573 100.65 59.9971 100.063 61.9376 98.6486C63.8782 97.2337 65.1762 95.1067 65.5461 92.7353L66.2907 87.9617L66.3147 87.8078L66.1669 87.7584C61.6496 86.2494 57.6237 83.5502 54.5144 79.946C51.4051 76.3417 49.3278 71.9662 48.5018 67.2815L48.4821 67.1694L48.3731 67.1368C38.0104 64.0346 31.2017 53.7527 32.9086 42.7909L35.7138 30.2005L35.7158 30.1917L35.7169 30.1828L36.1162 26.9213L37.408 27.1396L52.2096 32.7984L52.4263 32.8812L52.4582 32.6514L54.1161 20.7033L56.2422 20.9634L57.2834 21.3632L57.2966 21.3683L57.3104 21.3713L106.099 31.9477L104.717 40.8061ZM42.1671 39.8345L41.9848 39.8061L41.9564 39.9884L41.3156 44.0962C40.8864 46.8506 41.3227 49.6705 42.5644 52.1677C43.8061 54.6648 45.7922 56.7164 48.2492 58.04L48.4787 58.1637L48.5189 57.9061L51.0915 41.4133L51.1199 41.231L50.9377 41.2026L42.1671 39.8345ZM111.845 55.0981L111.845 55.0977L112.486 50.9899L112.514 50.8076L112.332 50.7792L103.561 49.4111L103.379 49.3827L103.351 49.5649L100.777 66.0621L100.737 66.3203L100.994 66.2717C103.735 65.753 106.249 64.4012 108.191 62.4012C110.133 60.4012 111.41 57.8506 111.845 55.0981Z" stroke="url(#paint8_linear_130_94)" stroke-width="0.36889" style="mix-blend-mode:overlay"/>
<g filter="url(#filter4_ii_130_94)">
<path d="M106.123 37.6475L107.532 28.6172L54.9082 20.4087L53.4996 29.439L35.9584 26.7028L33.9514 39.5695C32.2265 50.6275 39.0942 60.9981 49.5443 64.1264C50.376 68.8439 52.4678 73.25 55.5988 76.8794C58.7299 80.5088 62.7838 83.2268 67.3326 84.7462L66.588 89.5198C66.2256 91.8427 64.9541 93.9264 63.053 95.3125C61.152 96.6985 58.7772 97.2733 56.4511 96.9105L52.0658 96.2264L50.6996 104.985L85.782 110.458L87.1483 101.699L82.763 101.015C80.4369 100.652 78.35 99.3811 76.9614 97.482C75.5728 95.5828 74.9962 93.2108 75.3586 90.8879L76.1032 86.1143C80.8986 86.0524 85.5878 84.6982 89.6754 82.1948C93.763 79.6914 97.0974 76.1317 99.3263 71.8917C110.233 72.0946 119.933 64.3083 121.658 53.2503L123.665 40.3837L106.123 37.6475ZM42.722 40.9376L43.3627 36.8297L52.1334 38.1978L49.5607 54.6906C47.1373 53.385 45.1784 51.3614 43.9537 48.8985C42.7289 46.4355 42.2986 43.6542 42.722 40.9376ZM112.887 51.8822C112.457 54.5971 111.199 57.1129 109.283 59.0857C107.367 61.0584 104.888 62.3918 102.184 62.9034L104.757 46.4063L113.528 47.7744L112.887 51.8822Z" fill="url(#paint9_radial_130_94)"/>
<path d="M106.123 37.6475L107.532 28.6172L54.9082 20.4087L53.4996 29.439L35.9584 26.7028L33.9514 39.5695C32.2265 50.6275 39.0942 60.9981 49.5443 64.1264C50.376 68.8439 52.4678 73.25 55.5988 76.8794C58.7299 80.5088 62.7838 83.2268 67.3326 84.7462L66.588 89.5198C66.2256 91.8427 64.9541 93.9264 63.053 95.3125C61.152 96.6985 58.7772 97.2733 56.4511 96.9105L52.0658 96.2264L50.6996 104.985L85.782 110.458L87.1483 101.699L82.763 101.015C80.4369 100.652 78.35 99.3811 76.9614 97.482C75.5728 95.5828 74.9962 93.2108 75.3586 90.8879L76.1032 86.1143C80.8986 86.0524 85.5878 84.6982 89.6754 82.1948C93.763 79.6914 97.0974 76.1317 99.3263 71.8917C110.233 72.0946 119.933 64.3083 121.658 53.2503L123.665 40.3837L106.123 37.6475ZM42.722 40.9376L43.3627 36.8297L52.1334 38.1978L49.5607 54.6906C47.1373 53.385 45.1784 51.3614 43.9537 48.8985C42.7289 46.4355 42.2986 43.6542 42.722 40.9376ZM112.887 51.8822C112.457 54.5971 111.199 57.1129 109.283 59.0857C107.367 61.0584 104.888 62.3918 102.184 62.9034L104.757 46.4063L113.528 47.7744L112.887 51.8822Z" fill="url(#paint10_linear_130_94)" fill-opacity="0.4" style="mix-blend-mode:overlay"/>
</g>
<path d="M105.941 37.6191L105.913 37.8013L106.095 37.8297L123.454 40.5375L121.475 53.2219C119.765 64.1859 110.147 71.9085 99.3298 71.7073L99.216 71.7051L99.1631 71.8059C96.9496 76.0165 93.6384 79.5515 89.5791 82.0375C85.5198 84.5236 80.8631 85.8684 76.1008 85.9299L75.945 85.9319L75.9209 86.0859L75.1764 90.8594C74.8065 93.2308 75.395 95.6522 76.8125 97.5908C78.2299 99.5295 80.3602 100.827 82.7345 101.197L86.9376 101.853L85.6282 110.247L50.9102 104.831L52.2196 96.4371L56.4227 97.0927C58.7971 97.4631 61.2212 96.8763 63.1617 95.4615C65.1023 94.0467 66.4003 91.9196 66.7702 89.5482L67.5148 84.7747L67.5388 84.6207L67.391 84.5713C62.8737 83.0623 58.8478 80.3632 55.7385 76.7589C52.6292 73.1547 50.5519 68.7791 49.7259 64.0944L49.7062 63.9824L49.5972 63.9498C39.2327 60.847 32.4234 50.5619 34.1336 39.5979L36.1122 26.9135L53.4712 29.6213L53.6534 29.6497L53.6818 29.4674L55.062 20.6194L107.321 28.771L105.941 37.6191ZM43.3912 36.6475L43.2089 36.619L43.1805 36.8013L42.5397 40.9092C42.1105 43.6636 42.5468 46.4834 43.7885 48.9806C45.0302 51.4777 47.0163 53.5293 49.4733 54.853L49.7028 54.9766L49.743 54.719L52.3156 38.2262L52.344 38.044L52.1618 38.0156L43.3912 36.6475ZM113.069 51.911L113.069 51.9107L113.71 47.8028L113.738 47.6205L113.556 47.5921L104.786 46.224L104.603 46.1956L104.575 46.3779L102.002 62.875L101.961 63.1333L102.218 63.0847C104.959 62.5659 107.473 61.2142 109.415 59.2142C111.358 57.2142 112.634 54.6635 113.069 51.911Z" stroke="url(#paint11_linear_130_94)" stroke-width="0.36889" style="mix-blend-mode:overlay"/>
<defs>
<filter id="filter0_f_130_94" x="1.32229" y="54.2777" width="54.2771" height="57.4769" filterUnits="userSpaceOnUse" color-interpolation-filters="sRGB">
<feFlood flood-opacity="0" result="BackgroundImageFix"/>
<feBlend mode="normal" in="SourceGraphic" in2="BackgroundImageFix" result="shape"/>
<feGaussianBlur stdDeviation="0.33553" result="effect1_foregroundBlur_130_94"/>
</filter>
<filter id="filter1_ii_130_94" x="1.99335" y="41.1427" width="52.9349" height="86.1979" filterUnits="userSpaceOnUse" color-interpolation-filters="sRGB">
<feFlood flood-opacity="0" result="BackgroundImageFix"/>
<feBlend mode="normal" in="SourceGraphic" in2="BackgroundImageFix" result="shape"/>
<feColorMatrix in="SourceAlpha" type="matrix" values="0 0 0 0 0 0 0 0 0 0 0 0 0 0 0 0 0 0 127 0" result="hardAlpha"/>
<feOffset dy="-15.7925"/>
<feGaussianBlur stdDeviation="18.9878"/>
<feComposite in2="hardAlpha" operator="arithmetic" k2="-1" k3="1"/>
<feColorMatrix type="matrix" values="0 0 0 0 0 0 0 0 0 0 0 0 0 0 0 0 0 0 0.45 0"/>
<feBlend mode="overlay" in2="shape" result="effect1_innerShadow_130_94"/>
<feColorMatrix in="SourceAlpha" type="matrix" values="0 0 0 0 0 0 0 0 0 0 0 0 0 0 0 0 0 0 127 0" result="hardAlpha"/>
<feOffset dy="16.257"/>
<feGaussianBlur stdDeviation="10.0097"/>
<feComposite in2="hardAlpha" operator="arithmetic" k2="-1" k3="1"/>
<feColorMatrix type="matrix" values="0 0 0 0 1 0 0 0 0 1 0 0 0 0 1 0 0 0 1 0"/>
<feBlend mode="overlay" in2="effect1_innerShadow_130_94" result="effect2_innerShadow_130_94"/>
</filter>
<filter id="filter2_ii_130_94" x="2.44153" y="39.1562" width="52.3525" height="86.1979" filterUnits="userSpaceOnUse" color-interpolation-filters="sRGB">
<feFlood flood-opacity="0" result="BackgroundImageFix"/>
<feBlend mode="normal" in="SourceGraphic" in2="BackgroundImageFix" result="shape"/>
<feColorMatrix in="SourceAlpha" type="matrix" values="0 0 0 0 0 0 0 0 0 0 0 0 0 0 0 0 0 0 127 0" result="hardAlpha"/>
<feOffset dy="-15.7925"/>
<feGaussianBlur stdDeviation="18.9878"/>
<feComposite in2="hardAlpha" operator="arithmetic" k2="-1" k3="1"/>
<feColorMatrix type="matrix" values="0 0 0 0 0 0 0 0 0 0 0 0 0 0 0 0 0 0 0.45 0"/>
<feBlend mode="overlay" in2="shape" result="effect1_innerShadow_130_94"/>
<feColorMatrix in="SourceAlpha" type="matrix" values="0 0 0 0 0 0 0 0 0 0 0 0 0 0 0 0 0 0 127 0" result="hardAlpha"/>
<feOffset dy="16.257"/>
<feGaussianBlur stdDeviation="10.0097"/>
<feComposite in2="hardAlpha" operator="arithmetic" k2="-1" k3="1"/>
<feColorMatrix type="matrix" values="0 0 0 0 1 0 0 0 0 1 0 0 0 0 1 0 0 0 1 0"/>
<feBlend mode="overlay" in2="effect1_innerShadow_130_94" result="effect2_innerShadow_130_94"/>
</filter>
<filter id="filter3_ii_130_94" x="32.4623" y="-6.60365" width="89.9781" height="148.147" filterUnits="userSpaceOnUse" color-interpolation-filters="sRGB">
<feFlood flood-opacity="0" result="BackgroundImageFix"/>
<feBlend mode="normal" in="SourceGraphic" in2="BackgroundImageFix" result="shape"/>
<feColorMatrix in="SourceAlpha" type="matrix" values="0 0 0 0 0 0 0 0 0 0 0 0 0 0 0 0 0 0 127 0" result="hardAlpha"/>
<feOffset dy="-27.1019"/>
<feGaussianBlur stdDeviation="32.5852"/>
<feComposite in2="hardAlpha" operator="arithmetic" k2="-1" k3="1"/>
<feColorMatrix type="matrix" values="0 0 0 0 0 0 0 0 0 0 0 0 0 0 0 0 0 0 0.45 0"/>
<feBlend mode="overlay" in2="shape" result="effect1_innerShadow_130_94"/>
<feColorMatrix in="SourceAlpha" type="matrix" values="0 0 0 0 0 0 0 0 0 0 0 0 0 0 0 0 0 0 127 0" result="hardAlpha"/>
<feOffset dy="27.899"/>
<feGaussianBlur stdDeviation="17.1778"/>
<feComposite in2="hardAlpha" operator="arithmetic" k2="-1" k3="1"/>
<feColorMatrix type="matrix" values="0 0 0 0 1 0 0 0 0 1 0 0 0 0 1 0 0 0 1 0"/>
<feBlend mode="overlay" in2="effect1_innerShadow_130_94" result="effect2_innerShadow_130_94"/>
</filter>
<filter id="filter4_ii_130_94" x="33.6863" y="-6.69313" width="89.9782" height="145.05" filterUnits="userSpaceOnUse" color-interpolation-filters="sRGB">
<feFlood flood-opacity="0" result="BackgroundImageFix"/>
<feBlend mode="normal" in="SourceGraphic" in2="BackgroundImageFix" result="shape"/>
<feColorMatrix in="SourceAlpha" type="matrix" values="0 0 0 0 0 0 0 0 0 0 0 0 0 0 0 0 0 0 127 0" result="hardAlpha"/>
<feOffset dy="-27.1019"/>
<feGaussianBlur stdDeviation="32.5852"/>
<feComposite in2="hardAlpha" operator="arithmetic" k2="-1" k3="1"/>
<feColorMatrix type="matrix" values="0 0 0 0 0 0 0 0 0 0 0 0 0 0 0 0 0 0 0.45 0"/>
<feBlend mode="overlay" in2="shape" result="effect1_innerShadow_130_94"/>
<feColorMatrix in="SourceAlpha" type="matrix" values="0 0 0 0 0 0 0 0 0 0 0 0 0 0 0 0 0 0 127 0" result="hardAlpha"/>
<feOffset dy="27.899"/>
<feGaussianBlur stdDeviation="17.1778"/>
<feComposite in2="hardAlpha" operator="arithmetic" k2="-1" k3="1"/>
<feColorMatrix type="matrix" values="0 0 0 0 1 0 0 0 0 1 0 0 0 0 1 0 0 0 1 0"/>
<feBlend mode="overlay" in2="effect1_innerShadow_130_94" result="effect2_innerShadow_130_94"/>
</filter>
<radialGradient id="paint0_radial_130_94" cx="0" cy="0" r="1" gradientUnits="userSpaceOnUse" gradientTransform="translate(39.6613 71.773) rotate(112.771) scale(35.9444 30.8495)">
<stop offset="0.169422" stop-color="#3F4465"/>
<stop offset="1" stop-color="#272B3F"/>
</radialGradient>
<linearGradient id="paint1_linear_130_94" x1="30.8757" y1="97.8268" x2="47.21" y2="71.1357" gradientUnits="userSpaceOnUse">
<stop stop-color="white" stop-opacity="0"/>
<stop offset="0.58324" stop-color="white"/>
<stop offset="1" stop-color="white" stop-opacity="0"/>
</linearGradient>
<linearGradient id="paint2_linear_130_94" x1="16.1473" y1="62.7511" x2="43.2418" y2="90.8325" gradientUnits="userSpaceOnUse">
<stop stop-color="white"/>
<stop offset="1" stop-color="#999999" stop-opacity="0"/>
</linearGradient>
<radialGradient id="paint3_radial_130_94" cx="0" cy="0" r="1" gradientUnits="userSpaceOnUse" gradientTransform="translate(39.5536 69.7865) rotate(112.771) scale(35.9444 30.8495)">
<stop offset="0.169422" stop-color="#7379A3"/>
<stop offset="1" stop-color="#787E9D"/>
</radialGradient>
<linearGradient id="paint4_linear_130_94" x1="30.768" y1="95.8402" x2="47.1023" y2="69.1491" gradientUnits="userSpaceOnUse">
<stop stop-color="white" stop-opacity="0"/>
<stop offset="0.58324" stop-color="white"/>
<stop offset="1" stop-color="white" stop-opacity="0"/>
</linearGradient>
<linearGradient id="paint5_linear_130_94" x1="16.0396" y1="60.7645" x2="43.1341" y2="88.846" gradientUnits="userSpaceOnUse">
<stop stop-color="white"/>
<stop offset="1" stop-color="#999999" stop-opacity="0"/>
</linearGradient>
<radialGradient id="paint6_radial_130_94" cx="0" cy="0" r="1" gradientUnits="userSpaceOnUse" gradientTransform="translate(93.6952 54.0562) rotate(136.891) scale(61.6848 52.9413)">
<stop offset="0.169422" stop-color="#40445F"/>
<stop offset="1" stop-color="#3F4567"/>
</radialGradient>
<linearGradient id="paint7_linear_130_94" x1="61.6632" y1="88.7026" x2="105.966" y2="58.3518" gradientUnits="userSpaceOnUse">
<stop stop-color="white" stop-opacity="0"/>
<stop offset="0.58324" stop-color="white"/>
<stop offset="1" stop-color="white" stop-opacity="0"/>
</linearGradient>
<linearGradient id="paint8_linear_130_94" x1="63.1926" y1="23.4352" x2="85.9371" y2="86.4198" gradientUnits="userSpaceOnUse">
<stop stop-color="white"/>
<stop offset="1" stop-color="#999999" stop-opacity="0"/>
</linearGradient>
<radialGradient id="paint9_radial_130_94" cx="0" cy="0" r="1" gradientUnits="userSpaceOnUse" gradientTransform="translate(94.9193 50.8691) rotate(136.891) scale(61.6848 52.9413)">
<stop offset="0.169422" stop-color="#7379A3"/>
<stop offset="1" stop-color="#787E9D"/>
</radialGradient>
<linearGradient id="paint10_linear_130_94" x1="62.8873" y1="85.5155" x2="107.19" y2="55.1647" gradientUnits="userSpaceOnUse">
<stop stop-color="white" stop-opacity="0"/>
<stop offset="0.58324" stop-color="white"/>
<stop offset="1" stop-color="white" stop-opacity="0"/>
</linearGradient>
<linearGradient id="paint11_linear_130_94" x1="64.4167" y1="20.2481" x2="87.1612" y2="83.2327" gradientUnits="userSpaceOnUse">
<stop stop-color="white"/>
<stop offset="1" stop-color="#999999" stop-opacity="0"/>
</linearGradient>
</defs>
</svg>
